<mxfile host="65bd71144e">
    <diagram name="Página-1" id="MyzGb4AWoMDugNOR0tzc">
        <mxGraphModel dx="4773" dy="2479" grid="1" gridSize="10" guides="1" tooltips="1" connect="1" arrows="1" fold="1" page="1" pageScale="1" pageWidth="1169" pageHeight="827" background="#999999" math="0" shadow="0" adaptiveColors="none">
            <root>
                <mxCell id="0"/>
                <mxCell id="1" parent="0"/>
                <mxCell id="mkdnd21y6ApAW0Ob3dTZ-3" value="Tiago Fernandes&lt;div&gt;(&lt;i&gt;&lt;font&gt;Tridente&lt;/font&gt;&lt;/i&gt;)&lt;/div&gt;" style="rounded=0;whiteSpace=wrap;html=1;fillColor=#f0a30a;fontColor=#000000;strokeColor=#BD7000;fontFamily=Times New Roman;" parent="1" vertex="1">
                    <mxGeometry x="1370" y="-1320.5" width="120" height="40" as="geometry"/>
                </mxCell>
                <mxCell id="mkdnd21y6ApAW0Ob3dTZ-5" value="&lt;div&gt;Tomás Matos&lt;/div&gt;&lt;div&gt;(&lt;i&gt;&lt;font&gt;Sóbrio&lt;/font&gt;&lt;/i&gt;)&lt;/div&gt;" style="rounded=0;whiteSpace=wrap;html=1;fillColor=#f5f5f5;fontColor=#333333;strokeColor=#666666;fontFamily=Times New Roman;" parent="1" vertex="1">
                    <mxGeometry x="1770" y="-1240" width="120" height="40" as="geometry"/>
                </mxCell>
                <mxCell id="mkdnd21y6ApAW0Ob3dTZ-7" value="&lt;div&gt;Francisco Lopes&lt;/div&gt;&lt;div&gt;(&lt;i&gt;&lt;font&gt;MotherFoca&lt;/font&gt;&lt;/i&gt;)&lt;/div&gt;" style="rounded=0;whiteSpace=wrap;html=1;fillColor=#f5f5f5;fontColor=#333333;strokeColor=#666666;fontFamily=Times New Roman;" parent="1" vertex="1">
                    <mxGeometry x="1070" y="-1241.5" width="120" height="40" as="geometry"/>
                </mxCell>
                <mxCell id="mkdnd21y6ApAW0Ob3dTZ-8" value="&lt;div&gt;&lt;span style=&quot;background-color: initial;&quot;&gt;Cláudia Fernandes&lt;/span&gt;&lt;/div&gt;&lt;div&gt;&lt;span style=&quot;background-color: initial;&quot;&gt;(&lt;/span&gt;&lt;i style=&quot;background-color: initial;&quot;&gt;&lt;font&gt;Jornalista&lt;/font&gt;&lt;/i&gt;&lt;span style=&quot;background-color: initial;&quot;&gt;)&lt;/span&gt;&lt;br&gt;&lt;/div&gt;" style="rounded=0;whiteSpace=wrap;html=1;fillColor=#0050ef;fontColor=#ffffff;strokeColor=#001DBC;fontFamily=Times New Roman;" parent="1" vertex="1">
                    <mxGeometry x="1370" y="-1241.5" width="120" height="40" as="geometry"/>
                </mxCell>
                <mxCell id="mkdnd21y6ApAW0Ob3dTZ-9" value="&lt;div&gt;Filipa Machado&lt;/div&gt;&lt;div&gt;&lt;span style=&quot;background-color: initial;&quot;&gt;(&lt;font&gt;&lt;i&gt;Oca&lt;/i&gt;&lt;/font&gt;&lt;/span&gt;&lt;span style=&quot;background-color: initial;&quot;&gt;)&lt;/span&gt;&lt;br&gt;&lt;/div&gt;" style="rounded=0;whiteSpace=wrap;html=1;fillColor=#fa6800;fontColor=#000000;strokeColor=#C73500;fontFamily=Times New Roman;" parent="1" vertex="1">
                    <mxGeometry x="1569" y="-1240" width="120" height="40" as="geometry"/>
                </mxCell>
                <mxCell id="mkdnd21y6ApAW0Ob3dTZ-10" value="&lt;div&gt;Teresa Gaspar&lt;/div&gt;&lt;div&gt;&lt;span style=&quot;background-color: initial;&quot;&gt;(&lt;font&gt;&lt;i&gt;&amp;nbsp;&lt;/i&gt;&lt;/font&gt;&lt;/span&gt;&lt;span style=&quot;background-color: initial;&quot;&gt;)&lt;/span&gt;&lt;br&gt;&lt;/div&gt;" style="rounded=0;whiteSpace=wrap;html=1;fillColor=#0050ef;fontColor=#ffffff;strokeColor=#001DBC;fontFamily=Times New Roman;" parent="1" vertex="1">
                    <mxGeometry x="1210" y="-1241.5" width="120" height="40" as="geometry"/>
                </mxCell>
                <mxCell id="mkdnd21y6ApAW0Ob3dTZ-11" value="&lt;div&gt;&lt;span style=&quot;background-color: initial;&quot;&gt;Pedro Tomar&lt;/span&gt;&lt;/div&gt;&lt;div&gt;&lt;span style=&quot;background-color: initial;&quot;&gt;(&lt;/span&gt;&lt;i style=&quot;background-color: initial;&quot;&gt;&lt;font&gt;Corazón Bambino&lt;/font&gt;&lt;/i&gt;&lt;span style=&quot;background-color: initial;&quot;&gt;)&lt;/span&gt;&lt;br&gt;&lt;/div&gt;" style="rounded=0;whiteSpace=wrap;html=1;fillColor=#e3c800;fontColor=#000000;strokeColor=#B09500;fontFamily=Times New Roman;" parent="1" vertex="1">
                    <mxGeometry x="1310" y="-1161.5" width="120" height="40" as="geometry"/>
                </mxCell>
                <mxCell id="mkdnd21y6ApAW0Ob3dTZ-12" value="&lt;div&gt;Joana Carrilho&lt;/div&gt;&lt;div&gt;&lt;span style=&quot;background-color: initial;&quot;&gt;(&lt;font&gt;&lt;i&gt;Ariel Bambina&lt;/i&gt;&lt;/font&gt;&lt;/span&gt;&lt;span style=&quot;background-color: initial;&quot;&gt;)&lt;/span&gt;&lt;br&gt;&lt;/div&gt;" style="rounded=0;whiteSpace=wrap;html=1;fillColor=#e3c800;fontColor=#000000;strokeColor=#B09500;fontFamily=Times New Roman;" parent="1" vertex="1">
                    <mxGeometry x="1430" y="-1161.5" width="120" height="40" as="geometry"/>
                </mxCell>
                <mxCell id="mkdnd21y6ApAW0Ob3dTZ-13" value="&lt;div&gt;Diogo Lourenço&lt;/div&gt;&lt;div&gt;&lt;span style=&quot;background-color: initial;&quot;&gt;(&lt;font&gt;&lt;i&gt;Camões&lt;/i&gt;&lt;/font&gt;&lt;/span&gt;&lt;span style=&quot;background-color: initial;&quot;&gt;)&lt;/span&gt;&lt;br&gt;&lt;/div&gt;" style="rounded=0;whiteSpace=wrap;html=1;fillColor=#f5f5f5;fontColor=#333333;strokeColor=#666666;fontFamily=Times New Roman;" parent="1" vertex="1">
                    <mxGeometry x="1569" y="-1161.5" width="120" height="40" as="geometry"/>
                </mxCell>
                <mxCell id="mkdnd21y6ApAW0Ob3dTZ-14" value="&lt;div&gt;Kostiantyn Vladymyrov&lt;/div&gt;&lt;div&gt;&lt;span style=&quot;background-color: initial;&quot;&gt;(&lt;font&gt;&lt;i&gt;KAI&lt;/i&gt;&lt;/font&gt;&lt;/span&gt;&lt;span style=&quot;background-color: initial;&quot;&gt;)&lt;/span&gt;&lt;/div&gt;" style="rounded=0;whiteSpace=wrap;html=1;fillColor=#008a00;fontColor=#ffffff;strokeColor=#005700;fontFamily=Times New Roman;" parent="1" vertex="1">
                    <mxGeometry x="1130" y="-1161.5" width="120" height="40" as="geometry"/>
                </mxCell>
                <mxCell id="mkdnd21y6ApAW0Ob3dTZ-16" value="" style="endArrow=none;html=1;rounded=0;exitX=0.5;exitY=1;exitDx=0;exitDy=0;entryX=0.5;entryY=0;entryDx=0;entryDy=0;fontFamily=Times New Roman;" parent="1" source="mkdnd21y6ApAW0Ob3dTZ-8" target="mkdnd21y6ApAW0Ob3dTZ-11" edge="1">
                    <mxGeometry width="50" height="50" relative="1" as="geometry">
                        <mxPoint x="1400" y="-1249.25" as="sourcePoint"/>
                        <mxPoint x="1450" y="-1299.25" as="targetPoint"/>
                    </mxGeometry>
                </mxCell>
                <mxCell id="mkdnd21y6ApAW0Ob3dTZ-17" value="" style="endArrow=none;html=1;rounded=0;exitX=0.5;exitY=1;exitDx=0;exitDy=0;entryX=0.5;entryY=0;entryDx=0;entryDy=0;fontFamily=Times New Roman;" parent="1" source="mkdnd21y6ApAW0Ob3dTZ-8" target="mkdnd21y6ApAW0Ob3dTZ-12" edge="1">
                    <mxGeometry width="50" height="50" relative="1" as="geometry">
                        <mxPoint x="1440" y="-1189.25" as="sourcePoint"/>
                        <mxPoint x="1380" y="-1149.25" as="targetPoint"/>
                    </mxGeometry>
                </mxCell>
                <mxCell id="mkdnd21y6ApAW0Ob3dTZ-18" value="" style="endArrow=none;html=1;rounded=0;exitX=0.5;exitY=1;exitDx=0;exitDy=0;entryX=0.5;entryY=0;entryDx=0;entryDy=0;fontFamily=Times New Roman;" parent="1" source="mkdnd21y6ApAW0Ob3dTZ-7" target="mkdnd21y6ApAW0Ob3dTZ-14" edge="1">
                    <mxGeometry width="50" height="50" relative="1" as="geometry">
                        <mxPoint x="1330" y="-1179.5" as="sourcePoint"/>
                        <mxPoint x="1270" y="-1139.5" as="targetPoint"/>
                    </mxGeometry>
                </mxCell>
                <mxCell id="mkdnd21y6ApAW0Ob3dTZ-19" value="" style="endArrow=none;html=1;rounded=0;exitX=0.5;exitY=1;exitDx=0;exitDy=0;entryX=0.5;entryY=0;entryDx=0;entryDy=0;fontFamily=Times New Roman;" parent="1" source="mkdnd21y6ApAW0Ob3dTZ-9" target="mkdnd21y6ApAW0Ob3dTZ-13" edge="1">
                    <mxGeometry width="50" height="50" relative="1" as="geometry">
                        <mxPoint x="1629" y="-1200" as="sourcePoint"/>
                        <mxPoint x="1629" y="-1160" as="targetPoint"/>
                    </mxGeometry>
                </mxCell>
                <mxCell id="mkdnd21y6ApAW0Ob3dTZ-20" value="" style="endArrow=none;html=1;rounded=0;exitX=0.5;exitY=1;exitDx=0;exitDy=0;entryX=0.5;entryY=0;entryDx=0;entryDy=0;fontFamily=Times New Roman;" parent="1" source="mkdnd21y6ApAW0Ob3dTZ-3" target="mkdnd21y6ApAW0Ob3dTZ-7" edge="1">
                    <mxGeometry width="50" height="50" relative="1" as="geometry">
                        <mxPoint x="1090" y="-1179.5" as="sourcePoint"/>
                        <mxPoint x="1090" y="-1139.5" as="targetPoint"/>
                    </mxGeometry>
                </mxCell>
                <mxCell id="mkdnd21y6ApAW0Ob3dTZ-21" value="" style="endArrow=none;html=1;rounded=0;exitX=0.5;exitY=1;exitDx=0;exitDy=0;entryX=0.5;entryY=0;entryDx=0;entryDy=0;fontFamily=Times New Roman;" parent="1" source="mkdnd21y6ApAW0Ob3dTZ-3" target="mkdnd21y6ApAW0Ob3dTZ-5" edge="1">
                    <mxGeometry width="50" height="50" relative="1" as="geometry">
                        <mxPoint x="1100" y="-1169.5" as="sourcePoint"/>
                        <mxPoint x="1100" y="-1129.5" as="targetPoint"/>
                    </mxGeometry>
                </mxCell>
                <mxCell id="mkdnd21y6ApAW0Ob3dTZ-22" value="" style="endArrow=none;html=1;rounded=0;exitX=0.5;exitY=1;exitDx=0;exitDy=0;entryX=0.5;entryY=0;entryDx=0;entryDy=0;fontFamily=Times New Roman;" parent="1" source="mkdnd21y6ApAW0Ob3dTZ-3" target="mkdnd21y6ApAW0Ob3dTZ-8" edge="1">
                    <mxGeometry width="50" height="50" relative="1" as="geometry">
                        <mxPoint x="1320" y="-1269.5" as="sourcePoint"/>
                        <mxPoint x="1200" y="-1229.5" as="targetPoint"/>
                    </mxGeometry>
                </mxCell>
                <mxCell id="mkdnd21y6ApAW0Ob3dTZ-23" value="" style="endArrow=none;html=1;rounded=0;exitX=0.5;exitY=1;exitDx=0;exitDy=0;entryX=0.5;entryY=0;entryDx=0;entryDy=0;fontFamily=Times New Roman;" parent="1" source="mkdnd21y6ApAW0Ob3dTZ-3" target="mkdnd21y6ApAW0Ob3dTZ-10" edge="1">
                    <mxGeometry width="50" height="50" relative="1" as="geometry">
                        <mxPoint x="1320" y="-1269.5" as="sourcePoint"/>
                        <mxPoint x="1320" y="-1229.5" as="targetPoint"/>
                    </mxGeometry>
                </mxCell>
                <mxCell id="mkdnd21y6ApAW0Ob3dTZ-24" value="" style="endArrow=none;html=1;rounded=0;entryX=0.5;entryY=0;entryDx=0;entryDy=0;exitX=0.5;exitY=1;exitDx=0;exitDy=0;fontFamily=Times New Roman;" parent="1" source="mkdnd21y6ApAW0Ob3dTZ-3" target="mkdnd21y6ApAW0Ob3dTZ-9" edge="1">
                    <mxGeometry width="50" height="50" relative="1" as="geometry">
                        <mxPoint x="1320" y="-1269.5" as="sourcePoint"/>
                        <mxPoint x="1670" y="-1241.5" as="targetPoint"/>
                        <Array as="points"/>
                    </mxGeometry>
                </mxCell>
                <mxCell id="mkdnd21y6ApAW0Ob3dTZ-26" value="Patrícia Reis&lt;div&gt;&lt;div&gt;(&lt;font&gt;&lt;i&gt;Beicinhos&lt;/i&gt;&lt;/font&gt;)&lt;/div&gt;&lt;/div&gt;" style="rounded=0;whiteSpace=wrap;html=1;fillColor=#a20025;fontColor=#ffffff;strokeColor=#6F0000;fontFamily=Times New Roman;" parent="1" vertex="1">
                    <mxGeometry x="410" y="-1398" width="120" height="40" as="geometry"/>
                </mxCell>
                <mxCell id="mkdnd21y6ApAW0Ob3dTZ-28" value="" style="endArrow=none;html=1;rounded=0;entryX=0.5;entryY=1;entryDx=0;entryDy=0;exitX=0.5;exitY=0;exitDx=0;exitDy=0;fontFamily=Times New Roman;" parent="1" source="mkdnd21y6ApAW0Ob3dTZ-3" target="mkdnd21y6ApAW0Ob3dTZ-26" edge="1">
                    <mxGeometry width="50" height="50" relative="1" as="geometry">
                        <mxPoint x="-380" y="-1149.5" as="sourcePoint"/>
                        <mxPoint x="-140" y="-1109.5" as="targetPoint"/>
                        <Array as="points"/>
                    </mxGeometry>
                </mxCell>
                <mxCell id="mkdnd21y6ApAW0Ob3dTZ-29" value="&lt;div&gt;Margarida Félix&lt;/div&gt;&lt;div&gt;(&lt;i&gt;Ruffles&lt;/i&gt;)&lt;/div&gt;" style="rounded=0;whiteSpace=wrap;html=1;fillColor=#CCCCCC;fontColor=#000000;strokeColor=#432D57;fontFamily=Times New Roman;" parent="1" vertex="1">
                    <mxGeometry x="410" y="-1319" width="120" height="40" as="geometry"/>
                </mxCell>
                <mxCell id="mkdnd21y6ApAW0Ob3dTZ-31" value="" style="endArrow=none;html=1;rounded=0;entryX=0.5;entryY=1;entryDx=0;entryDy=0;exitX=0.5;exitY=0;exitDx=0;exitDy=0;fontFamily=Times New Roman;" parent="1" source="mkdnd21y6ApAW0Ob3dTZ-29" target="mkdnd21y6ApAW0Ob3dTZ-26" edge="1">
                    <mxGeometry width="50" height="50" relative="1" as="geometry">
                        <mxPoint x="120" y="-1128" as="sourcePoint"/>
                        <mxPoint x="170" y="-1178" as="targetPoint"/>
                    </mxGeometry>
                </mxCell>
                <mxCell id="mkdnd21y6ApAW0Ob3dTZ-32" value="&lt;div&gt;Nádia Nunes&lt;/div&gt;&lt;div&gt;(&lt;font&gt;&lt;i&gt;X à toa&lt;/i&gt;&lt;/font&gt;)&lt;/div&gt;" style="rounded=0;whiteSpace=wrap;html=1;fillColor=#f0a30a;fontColor=#000000;strokeColor=#BD7000;fontFamily=Times New Roman;" parent="1" vertex="1">
                    <mxGeometry x="-169" y="-1320.5" width="120" height="40" as="geometry"/>
                </mxCell>
                <mxCell id="mkdnd21y6ApAW0Ob3dTZ-33" value="" style="endArrow=none;html=1;rounded=0;entryX=0.5;entryY=1;entryDx=0;entryDy=0;exitX=0.5;exitY=0;exitDx=0;exitDy=0;fontFamily=Times New Roman;" parent="1" source="mkdnd21y6ApAW0Ob3dTZ-32" target="mkdnd21y6ApAW0Ob3dTZ-26" edge="1">
                    <mxGeometry width="50" height="50" relative="1" as="geometry">
                        <mxPoint x="-20" y="-1129.5" as="sourcePoint"/>
                        <mxPoint x="330" y="-1359.5" as="targetPoint"/>
                    </mxGeometry>
                </mxCell>
                <mxCell id="mkdnd21y6ApAW0Ob3dTZ-36" value="&lt;div&gt;Cassiano Lima&lt;/div&gt;&lt;div&gt;(&lt;font&gt;&lt;i&gt;A Diva&lt;/i&gt;&lt;/font&gt;)&lt;/div&gt;" style="rounded=0;whiteSpace=wrap;html=1;fillColor=#fa6800;fontColor=#000000;strokeColor=#C73500;fontFamily=Times New Roman;" parent="1" vertex="1">
                    <mxGeometry x="-169" y="-1239.5" width="120" height="40" as="geometry"/>
                </mxCell>
                <mxCell id="mkdnd21y6ApAW0Ob3dTZ-37" value="" style="endArrow=none;html=1;rounded=0;entryX=0.5;entryY=1;entryDx=0;entryDy=0;exitX=0.5;exitY=0;exitDx=0;exitDy=0;fontFamily=Times New Roman;" parent="1" source="mkdnd21y6ApAW0Ob3dTZ-36" target="mkdnd21y6ApAW0Ob3dTZ-32" edge="1">
                    <mxGeometry width="50" height="50" relative="1" as="geometry">
                        <mxPoint x="-179" y="-969.5" as="sourcePoint"/>
                        <mxPoint x="171" y="-1259.5" as="targetPoint"/>
                    </mxGeometry>
                </mxCell>
                <mxCell id="mkdnd21y6ApAW0Ob3dTZ-38" value="&lt;div&gt;António Antunes&lt;/div&gt;&lt;div&gt;( )&lt;/div&gt;" style="rounded=0;whiteSpace=wrap;html=1;fillColor=#0050ef;fontColor=#ffffff;strokeColor=#001DBC;fontFamily=Times New Roman;" parent="1" vertex="1">
                    <mxGeometry x="511" y="-1241.5" width="120" height="40" as="geometry"/>
                </mxCell>
                <mxCell id="mkdnd21y6ApAW0Ob3dTZ-39" value="" style="endArrow=none;html=1;rounded=0;entryX=0.5;entryY=1;entryDx=0;entryDy=0;exitX=0.5;exitY=0;exitDx=0;exitDy=0;fontFamily=Times New Roman;" parent="1" source="mkdnd21y6ApAW0Ob3dTZ-38" target="mkdnd21y6ApAW0Ob3dTZ-32" edge="1">
                    <mxGeometry width="50" height="50" relative="1" as="geometry">
                        <mxPoint x="-1259" y="-839.5" as="sourcePoint"/>
                        <mxPoint x="-909" y="-1069.5" as="targetPoint"/>
                    </mxGeometry>
                </mxCell>
                <mxCell id="mkdnd21y6ApAW0Ob3dTZ-40" value="&lt;div&gt;Francisco Sabino&lt;/div&gt;&lt;div&gt;(&lt;font&gt;&lt;i&gt;Meia-Perna&lt;/i&gt;&lt;/font&gt;)&lt;/div&gt;" style="rounded=0;whiteSpace=wrap;html=1;fillColor=#0050ef;fontColor=#ffffff;strokeColor=#001DBC;fontFamily=Times New Roman;" parent="1" vertex="1">
                    <mxGeometry x="-969" y="-1241.5" width="120" height="40" as="geometry"/>
                </mxCell>
                <mxCell id="mkdnd21y6ApAW0Ob3dTZ-42" value="&lt;div&gt;Diogo Resende&lt;/div&gt;&lt;div&gt;(&lt;font&gt;&lt;i&gt;Russel&lt;/i&gt;&lt;/font&gt;&lt;span style=&quot;background-color: initial;&quot;&gt;)&lt;/span&gt;&lt;/div&gt;" style="rounded=0;whiteSpace=wrap;html=1;fillColor=#e3c800;fontColor=#000000;strokeColor=#B09500;fontFamily=Times New Roman;" parent="1" vertex="1">
                    <mxGeometry x="151" y="-1159.5" width="120" height="40" as="geometry"/>
                </mxCell>
                <mxCell id="mkdnd21y6ApAW0Ob3dTZ-43" value="" style="endArrow=none;html=1;rounded=0;entryX=0.5;entryY=1;entryDx=0;entryDy=0;exitX=0.5;exitY=0;exitDx=0;exitDy=0;fontFamily=Times New Roman;" parent="1" source="mkdnd21y6ApAW0Ob3dTZ-42" target="mkdnd21y6ApAW0Ob3dTZ-38" edge="1">
                    <mxGeometry width="50" height="50" relative="1" as="geometry">
                        <mxPoint x="141" y="-1009.5" as="sourcePoint"/>
                        <mxPoint x="491" y="-1239.5" as="targetPoint"/>
                    </mxGeometry>
                </mxCell>
                <mxCell id="mkdnd21y6ApAW0Ob3dTZ-46" value="&lt;div&gt;Miguel Tavares&lt;/div&gt;&lt;div&gt;(&lt;font&gt;&lt;i&gt; &lt;/i&gt;&lt;/font&gt;)&lt;/div&gt;" style="rounded=0;whiteSpace=wrap;html=1;fillColor=#e3c800;fontColor=#000000;strokeColor=#B09500;fontFamily=Times New Roman;" parent="1" vertex="1">
                    <mxGeometry x="271" y="-1159.5" width="120" height="40" as="geometry"/>
                </mxCell>
                <mxCell id="mkdnd21y6ApAW0Ob3dTZ-47" value="" style="endArrow=none;html=1;rounded=0;exitX=0.5;exitY=0;exitDx=0;exitDy=0;entryX=0.5;entryY=1;entryDx=0;entryDy=0;fontFamily=Times New Roman;" parent="1" source="mkdnd21y6ApAW0Ob3dTZ-46" target="mkdnd21y6ApAW0Ob3dTZ-38" edge="1">
                    <mxGeometry width="50" height="50" relative="1" as="geometry">
                        <mxPoint x="261" y="-1009.5" as="sourcePoint"/>
                        <mxPoint x="491" y="-1149.5" as="targetPoint"/>
                    </mxGeometry>
                </mxCell>
                <mxCell id="mkdnd21y6ApAW0Ob3dTZ-48" value="&lt;div&gt;Afonso Leote&lt;/div&gt;&lt;div&gt;(&lt;font&gt;&lt;i&gt;Sassá&lt;/i&gt;&lt;/font&gt;)&lt;/div&gt;" style="rounded=0;whiteSpace=wrap;html=1;fillColor=#008a00;fontColor=#ffffff;strokeColor=#005700;fontFamily=Times New Roman;" parent="1" vertex="1">
                    <mxGeometry x="391" y="-1159.5" width="120" height="40" as="geometry"/>
                </mxCell>
                <mxCell id="mkdnd21y6ApAW0Ob3dTZ-49" value="" style="endArrow=none;html=1;rounded=0;entryX=0.5;entryY=1;entryDx=0;entryDy=0;exitX=0.5;exitY=0;exitDx=0;exitDy=0;fontFamily=Times New Roman;" parent="1" source="mkdnd21y6ApAW0Ob3dTZ-48" target="mkdnd21y6ApAW0Ob3dTZ-38" edge="1">
                    <mxGeometry width="50" height="50" relative="1" as="geometry">
                        <mxPoint x="241" y="-904.5" as="sourcePoint"/>
                        <mxPoint x="591" y="-1134.5" as="targetPoint"/>
                    </mxGeometry>
                </mxCell>
                <mxCell id="mkdnd21y6ApAW0Ob3dTZ-50" value="&lt;div&gt;Tiago Estrela&lt;/div&gt;&lt;div&gt;(&lt;font&gt;&lt;i&gt;Slayyy&lt;/i&gt;&lt;/font&gt;&lt;span style=&quot;background-color: initial;&quot;&gt;)&lt;/span&gt;&lt;/div&gt;" style="rounded=0;whiteSpace=wrap;html=1;fillColor=#008a00;fontColor=#ffffff;strokeColor=#005700;fontFamily=Times New Roman;" parent="1" vertex="1">
                    <mxGeometry x="511" y="-1159.5" width="120" height="40" as="geometry"/>
                </mxCell>
                <mxCell id="mkdnd21y6ApAW0Ob3dTZ-51" value="" style="endArrow=none;html=1;rounded=0;entryX=0.5;entryY=1;entryDx=0;entryDy=0;exitX=0.5;exitY=0;exitDx=0;exitDy=0;fontFamily=Times New Roman;" parent="1" source="mkdnd21y6ApAW0Ob3dTZ-50" target="mkdnd21y6ApAW0Ob3dTZ-38" edge="1">
                    <mxGeometry width="50" height="50" relative="1" as="geometry">
                        <mxPoint x="221" y="-1009.5" as="sourcePoint"/>
                        <mxPoint x="571" y="-1239.5" as="targetPoint"/>
                    </mxGeometry>
                </mxCell>
                <mxCell id="mkdnd21y6ApAW0Ob3dTZ-52" value="&lt;div&gt;Luka Roca&lt;/div&gt;&lt;div&gt;(&lt;font&gt;&lt;i&gt;SID Boca Aberta&lt;/i&gt;&lt;/font&gt;)&lt;/div&gt;" style="rounded=0;whiteSpace=wrap;html=1;fillColor=#008a00;fontColor=#ffffff;strokeColor=#005700;fontFamily=Times New Roman;" parent="1" vertex="1">
                    <mxGeometry x="631" y="-1159.5" width="120" height="40" as="geometry"/>
                </mxCell>
                <mxCell id="mkdnd21y6ApAW0Ob3dTZ-53" value="" style="endArrow=none;html=1;rounded=0;entryX=0.5;entryY=1;entryDx=0;entryDy=0;exitX=0.5;exitY=0;exitDx=0;exitDy=0;fontFamily=Times New Roman;" parent="1" source="mkdnd21y6ApAW0Ob3dTZ-52" target="mkdnd21y6ApAW0Ob3dTZ-38" edge="1">
                    <mxGeometry width="50" height="50" relative="1" as="geometry">
                        <mxPoint x="341" y="-1009.5" as="sourcePoint"/>
                        <mxPoint x="691" y="-1239.5" as="targetPoint"/>
                    </mxGeometry>
                </mxCell>
                <mxCell id="mkdnd21y6ApAW0Ob3dTZ-54" value="&lt;div&gt;Diogo Leitão&lt;/div&gt;&lt;div&gt;(&lt;font&gt;&lt;i&gt;SHINSHAN&lt;/i&gt;&lt;/font&gt;)&lt;/div&gt;" style="rounded=0;whiteSpace=wrap;html=1;fillColor=#008a00;fontColor=#ffffff;strokeColor=#005700;fontFamily=Times New Roman;" parent="1" vertex="1">
                    <mxGeometry x="751" y="-1159.5" width="120" height="40" as="geometry"/>
                </mxCell>
                <mxCell id="mkdnd21y6ApAW0Ob3dTZ-55" value="" style="endArrow=none;html=1;rounded=0;entryX=0.5;entryY=1;entryDx=0;entryDy=0;exitX=0.5;exitY=0;exitDx=0;exitDy=0;fontFamily=Times New Roman;" parent="1" source="mkdnd21y6ApAW0Ob3dTZ-54" target="mkdnd21y6ApAW0Ob3dTZ-38" edge="1">
                    <mxGeometry width="50" height="50" relative="1" as="geometry">
                        <mxPoint x="461" y="-1009.5" as="sourcePoint"/>
                        <mxPoint x="811" y="-1239.5" as="targetPoint"/>
                    </mxGeometry>
                </mxCell>
                <mxCell id="mkdnd21y6ApAW0Ob3dTZ-56" value="&lt;div&gt;António Faustino&lt;/div&gt;&lt;div&gt;(&lt;font&gt;&lt;i&gt;Fósforo&lt;/i&gt;&lt;/font&gt;)&lt;/div&gt;" style="rounded=0;whiteSpace=wrap;html=1;fillColor=#e3c800;fontColor=#000000;strokeColor=#B09500;fontFamily=Times New Roman;" parent="1" vertex="1">
                    <mxGeometry x="-109" y="-1159.5" width="120" height="40" as="geometry"/>
                </mxCell>
                <mxCell id="mkdnd21y6ApAW0Ob3dTZ-57" value="" style="endArrow=none;html=1;rounded=0;entryX=0.5;entryY=1;entryDx=0;entryDy=0;exitX=0.5;exitY=0;exitDx=0;exitDy=0;fontFamily=Times New Roman;" parent="1" source="mkdnd21y6ApAW0Ob3dTZ-56" target="mkdnd21y6ApAW0Ob3dTZ-36" edge="1">
                    <mxGeometry width="50" height="50" relative="1" as="geometry">
                        <mxPoint x="-459" y="-969.5" as="sourcePoint"/>
                        <mxPoint x="-109" y="-1199.5" as="targetPoint"/>
                    </mxGeometry>
                </mxCell>
                <mxCell id="mkdnd21y6ApAW0Ob3dTZ-58" value="&lt;div&gt;João Pires&lt;/div&gt;&lt;div&gt;(&lt;font&gt;&lt;i&gt;Ursinho Carinhoso&lt;/i&gt;&lt;/font&gt;)&lt;/div&gt;" style="rounded=0;whiteSpace=wrap;html=1;fillColor=#e3c800;fontColor=#000000;strokeColor=#B09500;fontFamily=Times New Roman;" parent="1" vertex="1">
                    <mxGeometry x="-229" y="-1159.5" width="120" height="40" as="geometry"/>
                </mxCell>
                <mxCell id="mkdnd21y6ApAW0Ob3dTZ-59" value="&lt;div&gt;Sérgio Ramos&lt;/div&gt;&lt;div&gt;(&lt;font&gt;&lt;i&gt;Ovão Sensations&lt;/i&gt;&lt;/font&gt;)&lt;/div&gt;" style="rounded=0;whiteSpace=wrap;html=1;fillColor=#e3c800;fontColor=#000000;strokeColor=#B09500;fontFamily=Times New Roman;" parent="1" vertex="1">
                    <mxGeometry x="11" y="-1159.5" width="120" height="40" as="geometry"/>
                </mxCell>
                <mxCell id="mkdnd21y6ApAW0Ob3dTZ-60" value="&lt;div&gt;Sérgio Matias&lt;/div&gt;&lt;div&gt;(&lt;font&gt;&lt;i&gt;Careca da Merda&lt;/i&gt;&lt;/font&gt;)&lt;/div&gt;" style="rounded=0;whiteSpace=wrap;html=1;fillColor=#e3c800;fontColor=#000000;strokeColor=#B09500;fontFamily=Times New Roman;" parent="1" vertex="1">
                    <mxGeometry x="-349" y="-1159.5" width="120" height="40" as="geometry"/>
                </mxCell>
                <mxCell id="mkdnd21y6ApAW0Ob3dTZ-62" value="" style="endArrow=none;html=1;rounded=0;entryX=0.5;entryY=1;entryDx=0;entryDy=0;exitX=0.5;exitY=0;exitDx=0;exitDy=0;fontFamily=Times New Roman;" parent="1" source="mkdnd21y6ApAW0Ob3dTZ-58" target="mkdnd21y6ApAW0Ob3dTZ-36" edge="1">
                    <mxGeometry width="50" height="50" relative="1" as="geometry">
                        <mxPoint x="-39" y="-1149.5" as="sourcePoint"/>
                        <mxPoint x="-99" y="-1189.5" as="targetPoint"/>
                    </mxGeometry>
                </mxCell>
                <mxCell id="mkdnd21y6ApAW0Ob3dTZ-63" value="" style="endArrow=none;html=1;rounded=0;entryX=0.5;entryY=1;entryDx=0;entryDy=0;exitX=0.5;exitY=0;exitDx=0;exitDy=0;fontFamily=Times New Roman;" parent="1" source="mkdnd21y6ApAW0Ob3dTZ-60" target="mkdnd21y6ApAW0Ob3dTZ-36" edge="1">
                    <mxGeometry width="50" height="50" relative="1" as="geometry">
                        <mxPoint x="-159" y="-1149.5" as="sourcePoint"/>
                        <mxPoint x="-99" y="-1189.5" as="targetPoint"/>
                    </mxGeometry>
                </mxCell>
                <mxCell id="mkdnd21y6ApAW0Ob3dTZ-64" value="" style="endArrow=none;html=1;rounded=0;entryX=0.5;entryY=1;entryDx=0;entryDy=0;exitX=0.5;exitY=0;exitDx=0;exitDy=0;fontFamily=Times New Roman;" parent="1" source="mkdnd21y6ApAW0Ob3dTZ-59" target="mkdnd21y6ApAW0Ob3dTZ-36" edge="1">
                    <mxGeometry width="50" height="50" relative="1" as="geometry">
                        <mxPoint x="-279" y="-1149.5" as="sourcePoint"/>
                        <mxPoint x="-99" y="-1189.5" as="targetPoint"/>
                    </mxGeometry>
                </mxCell>
                <mxCell id="mkdnd21y6ApAW0Ob3dTZ-66" value="" style="endArrow=none;html=1;rounded=0;entryX=0.5;entryY=1;entryDx=0;entryDy=0;exitX=0.5;exitY=0;exitDx=0;exitDy=0;fontFamily=Times New Roman;" parent="1" source="mkdnd21y6ApAW0Ob3dTZ-40" target="mkdnd21y6ApAW0Ob3dTZ-32" edge="1">
                    <mxGeometry width="50" height="50" relative="1" as="geometry">
                        <mxPoint x="-9" y="-1139.5" as="sourcePoint"/>
                        <mxPoint x="-9" y="-1179.5" as="targetPoint"/>
                    </mxGeometry>
                </mxCell>
                <mxCell id="mkdnd21y6ApAW0Ob3dTZ-67" value="&lt;div&gt;Guilherme Prazeres&lt;/div&gt;&lt;div&gt;(&lt;font&gt;&lt;i&gt;Egg Killer&lt;/i&gt;&lt;/font&gt;)&lt;/div&gt;" style="rounded=0;whiteSpace=wrap;html=1;fillColor=#f5f5f5;fontColor=#333333;strokeColor=#666666;fontFamily=Times New Roman;" parent="1" vertex="1">
                    <mxGeometry x="-969" y="-1159.5" width="120" height="40" as="geometry"/>
                </mxCell>
                <mxCell id="mkdnd21y6ApAW0Ob3dTZ-68" value="&lt;div&gt;Paulo Barata&lt;/div&gt;&lt;div&gt;(&lt;font&gt;&lt;i&gt;Ispapando&lt;/i&gt;&lt;/font&gt;)&lt;/div&gt;" style="rounded=0;whiteSpace=wrap;html=1;fillColor=#e3c800;fontColor=#000000;strokeColor=#B09500;fontFamily=Times New Roman;" parent="1" vertex="1">
                    <mxGeometry x="-729" y="-1159.5" width="120" height="40" as="geometry"/>
                </mxCell>
                <mxCell id="mkdnd21y6ApAW0Ob3dTZ-69" value="&lt;div&gt;Rafel Mendonça&lt;/div&gt;&lt;div&gt;(&lt;font&gt;&lt;i&gt; &lt;/i&gt;&lt;/font&gt;)&lt;/div&gt;" style="rounded=0;whiteSpace=wrap;html=1;fillColor=#e3c800;fontColor=#000000;strokeColor=#B09500;fontFamily=Times New Roman;" parent="1" vertex="1">
                    <mxGeometry x="-849" y="-1159.5" width="120" height="40" as="geometry"/>
                </mxCell>
                <mxCell id="mkdnd21y6ApAW0Ob3dTZ-70" value="&lt;div&gt;David Peres&lt;/div&gt;&lt;div&gt;(&lt;font&gt;&lt;i&gt;TVDE&lt;/i&gt;&lt;/font&gt;)&lt;/div&gt;" style="rounded=0;whiteSpace=wrap;html=1;fillColor=#008a00;fontColor=#ffffff;strokeColor=#005700;fontFamily=Times New Roman;" parent="1" vertex="1">
                    <mxGeometry x="-609" y="-1159.5" width="120" height="40" as="geometry"/>
                </mxCell>
                <mxCell id="mkdnd21y6ApAW0Ob3dTZ-72" value="" style="endArrow=none;html=1;rounded=0;entryX=0.5;entryY=1;entryDx=0;entryDy=0;exitX=0.5;exitY=0;exitDx=0;exitDy=0;fontFamily=Times New Roman;" parent="1" source="mkdnd21y6ApAW0Ob3dTZ-67" target="mkdnd21y6ApAW0Ob3dTZ-40" edge="1">
                    <mxGeometry width="50" height="50" relative="1" as="geometry">
                        <mxPoint x="-1079" y="-1149.5" as="sourcePoint"/>
                        <mxPoint x="-1259" y="-1189.5" as="targetPoint"/>
                    </mxGeometry>
                </mxCell>
                <mxCell id="mkdnd21y6ApAW0Ob3dTZ-73" value="" style="endArrow=none;html=1;rounded=0;entryX=0.5;entryY=1;entryDx=0;entryDy=0;exitX=0.5;exitY=0;exitDx=0;exitDy=0;fontFamily=Times New Roman;" parent="1" source="mkdnd21y6ApAW0Ob3dTZ-68" target="mkdnd21y6ApAW0Ob3dTZ-40" edge="1">
                    <mxGeometry width="50" height="50" relative="1" as="geometry">
                        <mxPoint x="-919" y="-1149.5" as="sourcePoint"/>
                        <mxPoint x="-739" y="-1189.5" as="targetPoint"/>
                    </mxGeometry>
                </mxCell>
                <mxCell id="mkdnd21y6ApAW0Ob3dTZ-74" value="" style="endArrow=none;html=1;rounded=0;entryX=0.5;entryY=1;entryDx=0;entryDy=0;exitX=0.5;exitY=0;exitDx=0;exitDy=0;fontFamily=Times New Roman;" parent="1" source="mkdnd21y6ApAW0Ob3dTZ-69" target="mkdnd21y6ApAW0Ob3dTZ-40" edge="1">
                    <mxGeometry width="50" height="50" relative="1" as="geometry">
                        <mxPoint x="-799" y="-1149.5" as="sourcePoint"/>
                        <mxPoint x="-739" y="-1189.5" as="targetPoint"/>
                    </mxGeometry>
                </mxCell>
                <mxCell id="mkdnd21y6ApAW0Ob3dTZ-75" value="" style="endArrow=none;html=1;rounded=0;entryX=0.5;entryY=1;entryDx=0;entryDy=0;exitX=0.5;exitY=0;exitDx=0;exitDy=0;fontFamily=Times New Roman;" parent="1" source="mkdnd21y6ApAW0Ob3dTZ-70" target="mkdnd21y6ApAW0Ob3dTZ-40" edge="1">
                    <mxGeometry width="50" height="50" relative="1" as="geometry">
                        <mxPoint x="-789" y="-1139.5" as="sourcePoint"/>
                        <mxPoint x="-729" y="-1179.5" as="targetPoint"/>
                    </mxGeometry>
                </mxCell>
                <mxCell id="mkdnd21y6ApAW0Ob3dTZ-76" value="&lt;div&gt;Inês Almeida&lt;/div&gt;&lt;div&gt;(&lt;font&gt;&lt;i&gt;Astro&lt;/i&gt;&lt;/font&gt;)&lt;/div&gt;" style="rounded=0;whiteSpace=wrap;html=1;fillColor=#008a00;fontColor=#ffffff;strokeColor=#005700;fontFamily=Times New Roman;" parent="1" vertex="1">
                    <mxGeometry x="-489" y="-1159.5" width="120" height="40" as="geometry"/>
                </mxCell>
                <mxCell id="mkdnd21y6ApAW0Ob3dTZ-77" value="" style="endArrow=none;html=1;rounded=0;entryX=0.5;entryY=1;entryDx=0;entryDy=0;exitX=0.5;exitY=0;exitDx=0;exitDy=0;fontFamily=Times New Roman;" parent="1" source="mkdnd21y6ApAW0Ob3dTZ-76" target="mkdnd21y6ApAW0Ob3dTZ-40" edge="1">
                    <mxGeometry width="50" height="50" relative="1" as="geometry">
                        <mxPoint x="-559" y="-1149.5" as="sourcePoint"/>
                        <mxPoint x="-739" y="-1189.5" as="targetPoint"/>
                    </mxGeometry>
                </mxCell>
                <mxCell id="mkdnd21y6ApAW0Ob3dTZ-114" value="&lt;div&gt;&lt;div&gt;Diogo Duque Dias&lt;/div&gt;&lt;div&gt;(&lt;font&gt;&lt;i&gt;Porn Star&lt;/i&gt;&lt;/font&gt;)&lt;/div&gt;&lt;/div&gt;" style="rounded=0;whiteSpace=wrap;html=1;fillColor=#FFFF00;fontColor=#000000;fontFamily=Times New Roman;" parent="1" vertex="1">
                    <mxGeometry x="-969" y="-1479" width="120" height="40" as="geometry"/>
                </mxCell>
                <mxCell id="mkdnd21y6ApAW0Ob3dTZ-115" value="" style="endArrow=none;html=1;rounded=0;entryX=0.5;entryY=1;entryDx=0;entryDy=0;exitX=0.5;exitY=0;exitDx=0;exitDy=0;fontFamily=Times New Roman;" parent="1" source="mkdnd21y6ApAW0Ob3dTZ-40" target="mkdnd21y6ApAW0Ob3dTZ-114" edge="1">
                    <mxGeometry width="50" height="50" relative="1" as="geometry">
                        <mxPoint x="1450" y="-1189.5" as="sourcePoint"/>
                        <mxPoint x="850" y="-1229.5" as="targetPoint"/>
                    </mxGeometry>
                </mxCell>
                <mxCell id="mkdnd21y6ApAW0Ob3dTZ-116" value="" style="endArrow=none;html=1;rounded=0;exitX=0.5;exitY=0;exitDx=0;exitDy=0;entryX=0.5;entryY=1;entryDx=0;entryDy=0;fontFamily=Times New Roman;" parent="1" source="mkdnd21y6ApAW0Ob3dTZ-26" target="mkdnd21y6ApAW0Ob3dTZ-114" edge="1">
                    <mxGeometry width="50" height="50" relative="1" as="geometry">
                        <mxPoint x="-190" y="-1269.5" as="sourcePoint"/>
                        <mxPoint x="-160" y="-1449.5" as="targetPoint"/>
                    </mxGeometry>
                </mxCell>
                <mxCell id="mkdnd21y6ApAW0Ob3dTZ-117" value="&lt;div&gt;&lt;div&gt;Inês Batista&lt;/div&gt;&lt;div&gt;(&lt;i&gt;&lt;font&gt;????&lt;/font&gt;&lt;/i&gt;)&lt;/div&gt;&lt;/div&gt;" style="rounded=0;whiteSpace=wrap;html=1;fillColor=#f0a30a;fontColor=#000000;strokeColor=#BD7000;fontFamily=Times New Roman;" parent="1" vertex="1">
                    <mxGeometry x="-1360" y="-1399" width="120" height="40" as="geometry"/>
                </mxCell>
                <mxCell id="mkdnd21y6ApAW0Ob3dTZ-118" value="" style="endArrow=none;html=1;rounded=0;entryX=0.5;entryY=1;entryDx=0;entryDy=0;exitX=0.5;exitY=0;exitDx=0;exitDy=0;fontFamily=Times New Roman;" parent="1" source="mkdnd21y6ApAW0Ob3dTZ-117" target="mkdnd21y6ApAW0Ob3dTZ-114" edge="1">
                    <mxGeometry width="50" height="50" relative="1" as="geometry">
                        <mxPoint x="-190" y="-1269.5" as="sourcePoint"/>
                        <mxPoint x="-190" y="-1349.5" as="targetPoint"/>
                    </mxGeometry>
                </mxCell>
                <mxCell id="mkdnd21y6ApAW0Ob3dTZ-119" value="&lt;div&gt;Mónica Oliveira&lt;/div&gt;&lt;div&gt;(&lt;i&gt;&lt;font&gt;????&lt;/font&gt;&lt;/i&gt;)&lt;/div&gt;" style="rounded=0;whiteSpace=wrap;html=1;fillColor=#f0a30a;fontColor=#000000;strokeColor=#BD7000;fontFamily=Times New Roman;" parent="1" vertex="1">
                    <mxGeometry x="-1040" y="-1400" width="120" height="40" as="geometry"/>
                </mxCell>
                <mxCell id="mkdnd21y6ApAW0Ob3dTZ-121" value="" style="endArrow=none;html=1;rounded=0;exitX=0.5;exitY=0;exitDx=0;exitDy=0;entryX=0.5;entryY=1;entryDx=0;entryDy=0;fontFamily=Times New Roman;" parent="1" source="mkdnd21y6ApAW0Ob3dTZ-119" target="mkdnd21y6ApAW0Ob3dTZ-114" edge="1">
                    <mxGeometry width="50" height="50" relative="1" as="geometry">
                        <mxPoint x="90" y="-1389.5" as="sourcePoint"/>
                        <mxPoint x="130" y="-1419.5" as="targetPoint"/>
                    </mxGeometry>
                </mxCell>
                <mxCell id="mkdnd21y6ApAW0Ob3dTZ-122" value="&lt;div&gt;Erica Soprana&lt;/div&gt;&lt;div&gt;(&lt;i&gt;&lt;font&gt;????&lt;/font&gt;&lt;/i&gt;)&lt;/div&gt;" style="rounded=0;whiteSpace=wrap;html=1;fillColor=#CCCCCC;fontColor=#000000;fontFamily=Times New Roman;" parent="1" vertex="1">
                    <mxGeometry x="-1200" y="-1400" width="120" height="40" as="geometry"/>
                </mxCell>
                <mxCell id="mkdnd21y6ApAW0Ob3dTZ-123" value="" style="endArrow=none;html=1;rounded=0;exitX=0.5;exitY=0;exitDx=0;exitDy=0;entryX=0.5;entryY=1;entryDx=0;entryDy=0;fontFamily=Times New Roman;" parent="1" source="mkdnd21y6ApAW0Ob3dTZ-122" target="mkdnd21y6ApAW0Ob3dTZ-114" edge="1">
                    <mxGeometry width="50" height="50" relative="1" as="geometry">
                        <mxPoint x="-430" y="-1389.5" as="sourcePoint"/>
                        <mxPoint x="-190" y="-1439.5" as="targetPoint"/>
                    </mxGeometry>
                </mxCell>
                <mxCell id="mkdnd21y6ApAW0Ob3dTZ-124" value="&lt;div&gt;&lt;div&gt;Filipe Costa&lt;/div&gt;&lt;div&gt;(&lt;i&gt;&lt;font&gt;????&lt;/font&gt;&lt;/i&gt;)&lt;/div&gt;&lt;/div&gt;" style="rounded=0;whiteSpace=wrap;html=1;fillColor=#f5f5f5;gradientColor=#b3b3b3;strokeColor=#666666;fontFamily=Times New Roman;" parent="1" vertex="1">
                    <mxGeometry x="-1560" y="-1399.5" width="120" height="40" as="geometry"/>
                </mxCell>
                <mxCell id="mkdnd21y6ApAW0Ob3dTZ-125" value="&lt;div&gt;Artur Queirós&lt;/div&gt;&lt;div&gt;(&lt;font&gt;&lt;i&gt;Desculpas&lt;/i&gt;&lt;/font&gt;)&lt;/div&gt;" style="rounded=0;whiteSpace=wrap;html=1;fillColor=#f0a30a;fontColor=#000000;strokeColor=#BD7000;fontFamily=Times New Roman;" parent="1" vertex="1">
                    <mxGeometry x="-1620" y="-1319.5" width="120" height="40" as="geometry"/>
                </mxCell>
                <mxCell id="mkdnd21y6ApAW0Ob3dTZ-126" value="&lt;div&gt;Miguel Malha&lt;/div&gt;&lt;div&gt;(&lt;font&gt;&lt;i&gt;Sógra&lt;/i&gt;&lt;/font&gt;)&lt;/div&gt;" style="rounded=0;whiteSpace=wrap;html=1;fillColor=#f5f5f5;gradientColor=#b3b3b3;strokeColor=#666666;fontFamily=Times New Roman;" parent="1" vertex="1">
                    <mxGeometry x="-1500" y="-1319.5" width="120" height="40" as="geometry"/>
                </mxCell>
                <mxCell id="mkdnd21y6ApAW0Ob3dTZ-127" value="&lt;div&gt;Tiago Pereira&lt;/div&gt;&lt;div&gt;(&lt;font&gt;&lt;i&gt;Morais&lt;/i&gt;&lt;/font&gt;)&lt;/div&gt;" style="rounded=0;whiteSpace=wrap;html=1;fillColor=#0050ef;fontColor=#ffffff;strokeColor=#001DBC;fontFamily=Times New Roman;" parent="1" vertex="1">
                    <mxGeometry x="-1680" y="-1239.5" width="120" height="40" as="geometry"/>
                </mxCell>
                <mxCell id="mkdnd21y6ApAW0Ob3dTZ-128" value="&lt;div&gt;André Silva&lt;/div&gt;&lt;div&gt;(&lt;font&gt;&lt;i&gt;Quem é o André?&lt;/i&gt;&lt;/font&gt;)&lt;/div&gt;" style="rounded=0;whiteSpace=wrap;html=1;fillColor=#fa6800;fontColor=#000000;strokeColor=#C73500;fontFamily=Times New Roman;" parent="1" vertex="1">
                    <mxGeometry x="-1560" y="-1239.5" width="120" height="40" as="geometry"/>
                </mxCell>
                <mxCell id="mkdnd21y6ApAW0Ob3dTZ-129" value="&lt;div&gt;Guilherme Brito&lt;/div&gt;&lt;div&gt;(&lt;font&gt;&lt;i&gt;Cro-Caralho&lt;/i&gt;&lt;/font&gt;)&lt;/div&gt;" style="rounded=0;whiteSpace=wrap;html=1;fillColor=#f5f5f5;fontColor=#333333;strokeColor=#666666;fontFamily=Times New Roman;" parent="1" vertex="1">
                    <mxGeometry x="-1620" y="-1159.5" width="120" height="40" as="geometry"/>
                </mxCell>
                <mxCell id="mkdnd21y6ApAW0Ob3dTZ-130" value="&lt;div&gt;David Colla Jorge&lt;/div&gt;&lt;div&gt;(&lt;font&gt;&lt;i&gt;Toodles&lt;/i&gt;&lt;/font&gt;)&lt;/div&gt;" style="rounded=0;whiteSpace=wrap;html=1;fillColor=#f5f5f5;fontColor=#333333;strokeColor=#666666;fontFamily=Times New Roman;" parent="1" vertex="1">
                    <mxGeometry x="-1500" y="-1159.5" width="120" height="40" as="geometry"/>
                </mxCell>
                <mxCell id="mkdnd21y6ApAW0Ob3dTZ-131" value="" style="endArrow=none;html=1;rounded=0;entryX=0.5;entryY=1;entryDx=0;entryDy=0;exitX=0.5;exitY=0;exitDx=0;exitDy=0;fontFamily=Times New Roman;" parent="1" source="mkdnd21y6ApAW0Ob3dTZ-129" target="mkdnd21y6ApAW0Ob3dTZ-128" edge="1">
                    <mxGeometry width="50" height="50" relative="1" as="geometry">
                        <mxPoint x="-1150" y="-1149.5" as="sourcePoint"/>
                        <mxPoint x="-910" y="-1189.5" as="targetPoint"/>
                    </mxGeometry>
                </mxCell>
                <mxCell id="mkdnd21y6ApAW0Ob3dTZ-132" value="" style="endArrow=none;html=1;rounded=0;entryX=0.5;entryY=1;entryDx=0;entryDy=0;exitX=0.5;exitY=0;exitDx=0;exitDy=0;fontFamily=Times New Roman;" parent="1" source="mkdnd21y6ApAW0Ob3dTZ-130" target="mkdnd21y6ApAW0Ob3dTZ-128" edge="1">
                    <mxGeometry width="50" height="50" relative="1" as="geometry">
                        <mxPoint x="-1550" y="-1149.5" as="sourcePoint"/>
                        <mxPoint x="-1490" y="-1189.5" as="targetPoint"/>
                    </mxGeometry>
                </mxCell>
                <mxCell id="mkdnd21y6ApAW0Ob3dTZ-133" value="" style="endArrow=none;html=1;rounded=0;entryX=0.5;entryY=1;entryDx=0;entryDy=0;exitX=0.5;exitY=0;exitDx=0;exitDy=0;fontFamily=Times New Roman;" parent="1" source="mkdnd21y6ApAW0Ob3dTZ-128" target="mkdnd21y6ApAW0Ob3dTZ-125" edge="1">
                    <mxGeometry width="50" height="50" relative="1" as="geometry">
                        <mxPoint x="-1430" y="-1109.5" as="sourcePoint"/>
                        <mxPoint x="-1490" y="-1149.5" as="targetPoint"/>
                    </mxGeometry>
                </mxCell>
                <mxCell id="mkdnd21y6ApAW0Ob3dTZ-134" value="" style="endArrow=none;html=1;rounded=0;entryX=0.5;entryY=1;entryDx=0;entryDy=0;exitX=0.5;exitY=0;exitDx=0;exitDy=0;fontFamily=Times New Roman;" parent="1" source="mkdnd21y6ApAW0Ob3dTZ-127" target="mkdnd21y6ApAW0Ob3dTZ-125" edge="1">
                    <mxGeometry width="50" height="50" relative="1" as="geometry">
                        <mxPoint x="-1490" y="-1189.5" as="sourcePoint"/>
                        <mxPoint x="-1550" y="-1229.5" as="targetPoint"/>
                    </mxGeometry>
                </mxCell>
                <mxCell id="mkdnd21y6ApAW0Ob3dTZ-135" value="" style="endArrow=none;html=1;rounded=0;entryX=0.5;entryY=1;entryDx=0;entryDy=0;exitX=0.5;exitY=0;exitDx=0;exitDy=0;fontFamily=Times New Roman;" parent="1" source="mkdnd21y6ApAW0Ob3dTZ-125" target="mkdnd21y6ApAW0Ob3dTZ-124" edge="1">
                    <mxGeometry width="50" height="50" relative="1" as="geometry">
                        <mxPoint x="-1610" y="-1229.5" as="sourcePoint"/>
                        <mxPoint x="-1550" y="-1269.5" as="targetPoint"/>
                    </mxGeometry>
                </mxCell>
                <mxCell id="mkdnd21y6ApAW0Ob3dTZ-136" value="" style="endArrow=none;html=1;rounded=0;entryX=0.5;entryY=1;entryDx=0;entryDy=0;exitX=0.5;exitY=0;exitDx=0;exitDy=0;fontFamily=Times New Roman;" parent="1" source="mkdnd21y6ApAW0Ob3dTZ-126" target="mkdnd21y6ApAW0Ob3dTZ-124" edge="1">
                    <mxGeometry width="50" height="50" relative="1" as="geometry">
                        <mxPoint x="-1550" y="-1309.5" as="sourcePoint"/>
                        <mxPoint x="-1490" y="-1349.5" as="targetPoint"/>
                    </mxGeometry>
                </mxCell>
                <mxCell id="mkdnd21y6ApAW0Ob3dTZ-137" value="" style="endArrow=none;html=1;rounded=0;exitX=0.5;exitY=0;exitDx=0;exitDy=0;entryX=0.5;entryY=1;entryDx=0;entryDy=0;fontFamily=Times New Roman;" parent="1" source="mkdnd21y6ApAW0Ob3dTZ-124" target="mkdnd21y6ApAW0Ob3dTZ-114" edge="1">
                    <mxGeometry width="50" height="50" relative="1" as="geometry">
                        <mxPoint x="-1660" y="-1259.5" as="sourcePoint"/>
                        <mxPoint x="-420" y="-1389.5" as="targetPoint"/>
                    </mxGeometry>
                </mxCell>
                <mxCell id="mkdnd21y6ApAW0Ob3dTZ-138" value="&lt;div&gt;Miguel Carreira&lt;/div&gt;&lt;div&gt;(&lt;i&gt;&lt;font&gt;????&lt;/font&gt;&lt;/i&gt;)&lt;/div&gt;" style="rounded=0;whiteSpace=wrap;html=1;fillColor=#d80073;labelBackgroundColor=none;fontColor=#ffffff;strokeColor=#A50040;fontFamily=Times New Roman;" parent="1" vertex="1">
                    <mxGeometry x="-1960" y="-1399.5" width="120" height="40" as="geometry"/>
                </mxCell>
                <mxCell id="mkdnd21y6ApAW0Ob3dTZ-139" value="&lt;div&gt;Carlos Vasconcelos&lt;/div&gt;&lt;div&gt;(&lt;i&gt;&lt;font&gt;????&lt;/font&gt;&lt;/i&gt;)&lt;/div&gt;" style="rounded=0;whiteSpace=wrap;html=1;fillColor=#f0a30a;fontColor=#000000;strokeColor=#BD7000;fontFamily=Times New Roman;" parent="1" vertex="1">
                    <mxGeometry x="-1960" y="-1320" width="120" height="40" as="geometry"/>
                </mxCell>
                <mxCell id="mkdnd21y6ApAW0Ob3dTZ-144" value="" style="endArrow=none;html=1;rounded=0;entryX=0.5;entryY=1;entryDx=0;entryDy=0;exitX=0.5;exitY=0;exitDx=0;exitDy=0;fontFamily=Times New Roman;" parent="1" source="mkdnd21y6ApAW0Ob3dTZ-139" target="mkdnd21y6ApAW0Ob3dTZ-138" edge="1">
                    <mxGeometry width="50" height="50" relative="1" as="geometry">
                        <mxPoint x="-1830" y="-1309.5" as="sourcePoint"/>
                        <mxPoint x="-1890" y="-1349.5" as="targetPoint"/>
                    </mxGeometry>
                </mxCell>
                <mxCell id="mkdnd21y6ApAW0Ob3dTZ-147" value="" style="endArrow=none;html=1;rounded=0;entryX=0.5;entryY=1;entryDx=0;entryDy=0;exitX=0.5;exitY=0;exitDx=0;exitDy=0;fontFamily=Times New Roman;" parent="1" source="mkdnd21y6ApAW0Ob3dTZ-138" target="mkdnd21y6ApAW0Ob3dTZ-114" edge="1">
                    <mxGeometry width="50" height="50" relative="1" as="geometry">
                        <mxPoint x="-1550" y="-1269.5" as="sourcePoint"/>
                        <mxPoint x="-1490" y="-1309.5" as="targetPoint"/>
                    </mxGeometry>
                </mxCell>
                <mxCell id="mkdnd21y6ApAW0Ob3dTZ-148" value="&lt;div&gt;Claudio Ventura&lt;/div&gt;&lt;div&gt;(&lt;i&gt;&lt;font&gt;????&lt;/font&gt;&lt;/i&gt;)&lt;/div&gt;" style="rounded=0;whiteSpace=wrap;html=1;fillColor=#a0522d;fontColor=#ffffff;strokeColor=#6D1F00;fontFamily=Times New Roman;" parent="1" vertex="1">
                    <mxGeometry x="-2220" y="-1560" width="120" height="40" as="geometry"/>
                </mxCell>
                <mxCell id="mkdnd21y6ApAW0Ob3dTZ-149" value="" style="endArrow=none;html=1;rounded=0;entryX=0.5;entryY=0;entryDx=0;entryDy=0;exitX=0.5;exitY=1;exitDx=0;exitDy=0;fontFamily=Times New Roman;" parent="1" source="mkdnd21y6ApAW0Ob3dTZ-148" target="mkdnd21y6ApAW0Ob3dTZ-114" edge="1">
                    <mxGeometry width="50" height="50" relative="1" as="geometry">
                        <mxPoint x="-1570" y="-1310" as="sourcePoint"/>
                        <mxPoint x="130" y="-1400" as="targetPoint"/>
                    </mxGeometry>
                </mxCell>
                <mxCell id="mkdnd21y6ApAW0Ob3dTZ-152" value="&lt;div&gt;João Esteves&lt;/div&gt;&lt;div&gt;(&lt;i&gt;&lt;font&gt;????&lt;/font&gt;&lt;/i&gt;)&lt;/div&gt;" style="rounded=0;whiteSpace=wrap;html=1;fillColor=#f5f5f5;gradientColor=#b3b3b3;strokeColor=#666666;fontFamily=Times New Roman;" parent="1" vertex="1">
                    <mxGeometry x="-2220" y="-1480" width="120" height="40" as="geometry"/>
                </mxCell>
                <mxCell id="mkdnd21y6ApAW0Ob3dTZ-153" value="" style="endArrow=none;html=1;rounded=0;entryX=0.5;entryY=1;entryDx=0;entryDy=0;exitX=0.5;exitY=0;exitDx=0;exitDy=0;fontFamily=Times New Roman;" parent="1" source="mkdnd21y6ApAW0Ob3dTZ-152" target="mkdnd21y6ApAW0Ob3dTZ-148" edge="1">
                    <mxGeometry width="50" height="50" relative="1" as="geometry">
                        <mxPoint x="-1630" y="-1230" as="sourcePoint"/>
                        <mxPoint x="-1570" y="-1270" as="targetPoint"/>
                    </mxGeometry>
                </mxCell>
                <mxCell id="mkdnd21y6ApAW0Ob3dTZ-155" value="&lt;div&gt;Rui Velez&lt;/div&gt;&lt;div&gt;(&lt;i&gt;&lt;font&gt;????&lt;/font&gt;&lt;/i&gt;)&lt;/div&gt;" style="rounded=0;whiteSpace=wrap;html=1;fillColor=#f5f5f5;gradientColor=#b3b3b3;strokeColor=#666666;fontFamily=Times New Roman;" parent="1" vertex="1">
                    <mxGeometry x="-2220" y="-1400" width="120" height="40" as="geometry"/>
                </mxCell>
                <mxCell id="mkdnd21y6ApAW0Ob3dTZ-156" value="" style="endArrow=none;html=1;rounded=0;entryX=0.5;entryY=1;entryDx=0;entryDy=0;exitX=0.5;exitY=0;exitDx=0;exitDy=0;fontFamily=Times New Roman;" parent="1" source="mkdnd21y6ApAW0Ob3dTZ-155" target="mkdnd21y6ApAW0Ob3dTZ-152" edge="1">
                    <mxGeometry width="50" height="50" relative="1" as="geometry">
                        <mxPoint x="-2150" y="-1470" as="sourcePoint"/>
                        <mxPoint x="-2150" y="-1550" as="targetPoint"/>
                    </mxGeometry>
                </mxCell>
                <mxCell id="mkdnd21y6ApAW0Ob3dTZ-157" value="&lt;div&gt;Joana Coelho&lt;/div&gt;&lt;div&gt;(&lt;i&gt;&lt;font&gt;????&lt;/font&gt;&lt;/i&gt;)&lt;/div&gt;" style="rounded=0;whiteSpace=wrap;html=1;fillColor=#ffff00;fontColor=#000000;fontFamily=Times New Roman;" parent="1" vertex="1">
                    <mxGeometry x="-2700" y="-1480" width="120" height="40" as="geometry"/>
                </mxCell>
                <mxCell id="mkdnd21y6ApAW0Ob3dTZ-158" value="" style="endArrow=none;html=1;rounded=0;entryX=0.5;entryY=1;entryDx=0;entryDy=0;exitX=0.5;exitY=0;exitDx=0;exitDy=0;fontFamily=Times New Roman;" parent="1" source="mkdnd21y6ApAW0Ob3dTZ-157" target="mkdnd21y6ApAW0Ob3dTZ-148" edge="1">
                    <mxGeometry width="50" height="50" relative="1" as="geometry">
                        <mxPoint x="-2150" y="-1430" as="sourcePoint"/>
                        <mxPoint x="-2150" y="-1510" as="targetPoint"/>
                    </mxGeometry>
                </mxCell>
                <mxCell id="mkdnd21y6ApAW0Ob3dTZ-160" value="&lt;div&gt;Carolina Santos&lt;/div&gt;&lt;div&gt;(&lt;i&gt;&lt;font&gt;????&lt;/font&gt;&lt;/i&gt;)&lt;/div&gt;" style="rounded=0;whiteSpace=wrap;html=1;fillColor=#CCCCCC;fontColor=#333333;strokeColor=#666666;fontFamily=Times New Roman;" parent="1" vertex="1">
                    <mxGeometry x="-2900" y="-1400" width="120" height="40" as="geometry"/>
                </mxCell>
                <mxCell id="mkdnd21y6ApAW0Ob3dTZ-161" value="&lt;div&gt;André Dias&lt;/div&gt;&lt;div&gt;(&lt;i&gt;&lt;font&gt;????&lt;/font&gt;&lt;/i&gt;)&lt;/div&gt;" style="rounded=0;whiteSpace=wrap;html=1;fillColor=#f5f5f5;gradientColor=#b3b3b3;strokeColor=#666666;fontFamily=Times New Roman;" parent="1" vertex="1">
                    <mxGeometry x="-2700" y="-1400" width="120" height="40" as="geometry"/>
                </mxCell>
                <mxCell id="mkdnd21y6ApAW0Ob3dTZ-162" value="&lt;div&gt;Diogo Carvalho&lt;/div&gt;&lt;div&gt;(&lt;i&gt;&lt;font&gt;????&lt;/font&gt;&lt;/i&gt;)&lt;/div&gt;" style="rounded=0;whiteSpace=wrap;html=1;fillColor=#f5f5f5;strokeColor=#666666;gradientColor=#b3b3b3;fontFamily=Times New Roman;" parent="1" vertex="1">
                    <mxGeometry x="-2500" y="-1400" width="120" height="40" as="geometry"/>
                </mxCell>
                <mxCell id="mkdnd21y6ApAW0Ob3dTZ-163" value="&lt;div&gt;Daniel Soares&lt;/div&gt;&lt;div&gt;(&lt;i&gt;&lt;font&gt;????&lt;/font&gt;&lt;/i&gt;)&lt;/div&gt;" style="rounded=0;whiteSpace=wrap;html=1;fillColor=#d80073;fontColor=#ffffff;strokeColor=#A50040;fontFamily=Times New Roman;" parent="1" vertex="1">
                    <mxGeometry x="-2500" y="-1320" width="120" height="40" as="geometry"/>
                </mxCell>
                <mxCell id="mkdnd21y6ApAW0Ob3dTZ-164" value="&lt;div&gt;Soraia Taborda&lt;/div&gt;&lt;div&gt;(&lt;i&gt;&lt;font&gt;????&lt;/font&gt;&lt;/i&gt;)&lt;/div&gt;" style="rounded=0;whiteSpace=wrap;html=1;fillColor=#000066;fontColor=#FFFFFF;fontFamily=Times New Roman;" parent="1" vertex="1">
                    <mxGeometry x="-2680" y="-1240" width="120" height="40" as="geometry"/>
                </mxCell>
                <mxCell id="mkdnd21y6ApAW0Ob3dTZ-165" value="&lt;div&gt;Diogo Ribeiro&lt;/div&gt;&lt;div&gt;(&lt;font&gt;&lt;i&gt;Finos&lt;/i&gt;&lt;/font&gt;)&lt;/div&gt;" style="rounded=0;whiteSpace=wrap;html=1;fillColor=#0050ef;fontColor=#ffffff;strokeColor=#001DBC;fontFamily=Times New Roman;" parent="1" vertex="1">
                    <mxGeometry x="-2560" y="-1240" width="120" height="40" as="geometry"/>
                </mxCell>
                <mxCell id="mkdnd21y6ApAW0Ob3dTZ-166" value="&lt;div&gt;Ruben Silva&lt;/div&gt;&lt;div&gt;(&lt;i&gt;&lt;font&gt;????&lt;/font&gt;&lt;/i&gt;)&lt;/div&gt;" style="rounded=0;whiteSpace=wrap;html=1;fillColor=#f0a30a;fontColor=#000000;strokeColor=#BD7000;fontFamily=Times New Roman;" parent="1" vertex="1">
                    <mxGeometry x="-2440" y="-1240" width="120" height="40" as="geometry"/>
                </mxCell>
                <mxCell id="mkdnd21y6ApAW0Ob3dTZ-167" value="&lt;div&gt;Henrique Martinho&lt;/div&gt;&lt;div&gt;(&lt;font&gt;&lt;i&gt;Anananás&lt;/i&gt;&lt;/font&gt;)&lt;/div&gt;" style="rounded=0;whiteSpace=wrap;html=1;fillColor=#000066;fontColor=#FFFFFF;fontFamily=Times New Roman;" parent="1" vertex="1">
                    <mxGeometry x="-2320" y="-1240" width="120" height="40" as="geometry"/>
                </mxCell>
                <mxCell id="mkdnd21y6ApAW0Ob3dTZ-168" value="&lt;div&gt;Daniela Levesinho&lt;/div&gt;&lt;div&gt;(&lt;i&gt;&lt;font&gt;????&lt;/font&gt;&lt;/i&gt;)&lt;/div&gt;" style="rounded=0;whiteSpace=wrap;html=1;fillColor=#0050ef;fontColor=#ffffff;strokeColor=#001DBC;fontFamily=Times New Roman;" parent="1" vertex="1">
                    <mxGeometry x="-2320" y="-1160" width="120" height="40" as="geometry"/>
                </mxCell>
                <mxCell id="mkdnd21y6ApAW0Ob3dTZ-169" value="&lt;div&gt;David Marques&lt;/div&gt;&lt;div&gt;(&lt;font&gt;&lt;i&gt;apara-dedos&lt;/i&gt;&lt;/font&gt;)&lt;/div&gt;" style="rounded=0;whiteSpace=wrap;html=1;fillColor=#fa6800;fontColor=#000000;strokeColor=#C73500;fontFamily=Times New Roman;" parent="1" vertex="1">
                    <mxGeometry x="-3080" y="-1319.75" width="120" height="40" as="geometry"/>
                </mxCell>
                <mxCell id="mkdnd21y6ApAW0Ob3dTZ-170" value="&lt;div&gt;Nuno Brás&lt;/div&gt;&lt;div&gt;(&lt;font&gt;&lt;i&gt;Moisés&lt;/i&gt;&lt;/font&gt;)&lt;/div&gt;" style="rounded=0;whiteSpace=wrap;html=1;fillColor=#000066;fontColor=#ffffff;strokeColor=#432D57;fontFamily=Times New Roman;" parent="1" vertex="1">
                    <mxGeometry x="-2840" y="-1320" width="120" height="40" as="geometry"/>
                </mxCell>
                <mxCell id="mkdnd21y6ApAW0Ob3dTZ-171" value="&lt;div&gt;Inês Azevedo&lt;/div&gt;&lt;div&gt;(&lt;font&gt;&lt;i&gt;Caloira de Fracas&lt;/i&gt;&lt;/font&gt;)&lt;/div&gt;" style="rounded=0;whiteSpace=wrap;html=1;fillColor=#fa6800;fontColor=#000000;strokeColor=#C73500;fontFamily=Times New Roman;" parent="1" vertex="1">
                    <mxGeometry x="-2960" y="-1319.75" width="120" height="40" as="geometry"/>
                </mxCell>
                <mxCell id="mkdnd21y6ApAW0Ob3dTZ-172" value="&lt;div&gt;André Canhoto&lt;/div&gt;&lt;div&gt;(&lt;font&gt;&lt;i&gt;Destro&lt;/i&gt;&lt;/font&gt;)&lt;/div&gt;" style="rounded=0;whiteSpace=wrap;html=1;fillColor=#0050ef;fontColor=#ffffff;strokeColor=#001DBC;fontFamily=Times New Roman;" parent="1" vertex="1">
                    <mxGeometry x="-2720" y="-1319.5" width="120" height="40" as="geometry"/>
                </mxCell>
                <mxCell id="mkdnd21y6ApAW0Ob3dTZ-173" value="&lt;div&gt;Carolina Cruz&lt;/div&gt;&lt;div&gt;(&lt;font&gt;&lt;i&gt;Primeira&lt;/i&gt;&lt;/font&gt;)&lt;/div&gt;" style="rounded=0;whiteSpace=wrap;html=1;fillColor=#e3c800;fontColor=#000000;strokeColor=#B09500;fontFamily=Times New Roman;" parent="1" vertex="1">
                    <mxGeometry x="-3080" y="-1239.25" width="120" height="40" as="geometry"/>
                </mxCell>
                <mxCell id="mkdnd21y6ApAW0Ob3dTZ-174" value="&lt;div&gt;Humberto Carvalho&lt;/div&gt;&lt;div&gt;(&lt;font&gt;&lt;i&gt;Roubado&lt;sup&gt;2&lt;/sup&gt;&lt;/i&gt;&lt;/font&gt;)&lt;/div&gt;" style="rounded=0;whiteSpace=wrap;html=1;fillColor=#e3c800;fontColor=#000000;strokeColor=#B09500;fontFamily=Times New Roman;" parent="1" vertex="1">
                    <mxGeometry x="-2960" y="-1239.25" width="120" height="40" as="geometry"/>
                </mxCell>
                <mxCell id="mkdnd21y6ApAW0Ob3dTZ-175" value="" style="endArrow=none;html=1;rounded=0;entryX=0.5;entryY=1;entryDx=0;entryDy=0;exitX=0.5;exitY=0;exitDx=0;exitDy=0;fontFamily=Times New Roman;" parent="1" source="mkdnd21y6ApAW0Ob3dTZ-160" target="mkdnd21y6ApAW0Ob3dTZ-157" edge="1">
                    <mxGeometry width="50" height="50" relative="1" as="geometry">
                        <mxPoint x="-2150" y="-1470" as="sourcePoint"/>
                        <mxPoint x="-2150" y="-1550" as="targetPoint"/>
                    </mxGeometry>
                </mxCell>
                <mxCell id="mkdnd21y6ApAW0Ob3dTZ-176" value="" style="endArrow=none;html=1;rounded=0;exitX=0.5;exitY=0;exitDx=0;exitDy=0;entryX=0.5;entryY=1;entryDx=0;entryDy=0;fontFamily=Times New Roman;" parent="1" source="mkdnd21y6ApAW0Ob3dTZ-161" target="mkdnd21y6ApAW0Ob3dTZ-157" edge="1">
                    <mxGeometry width="50" height="50" relative="1" as="geometry">
                        <mxPoint x="-2830" y="-1390" as="sourcePoint"/>
                        <mxPoint x="-2660" y="-1420" as="targetPoint"/>
                    </mxGeometry>
                </mxCell>
                <mxCell id="mkdnd21y6ApAW0Ob3dTZ-177" value="" style="endArrow=none;html=1;rounded=0;exitX=0.5;exitY=1;exitDx=0;exitDy=0;entryX=0.5;entryY=0;entryDx=0;entryDy=0;fontFamily=Times New Roman;" parent="1" source="mkdnd21y6ApAW0Ob3dTZ-157" target="mkdnd21y6ApAW0Ob3dTZ-162" edge="1">
                    <mxGeometry width="50" height="50" relative="1" as="geometry">
                        <mxPoint x="-2630" y="-1390" as="sourcePoint"/>
                        <mxPoint x="-2630" y="-1430" as="targetPoint"/>
                    </mxGeometry>
                </mxCell>
                <mxCell id="mkdnd21y6ApAW0Ob3dTZ-178" value="" style="endArrow=none;html=1;rounded=0;exitX=0.5;exitY=0;exitDx=0;exitDy=0;entryX=0.5;entryY=1;entryDx=0;entryDy=0;fontFamily=Times New Roman;" parent="1" source="mkdnd21y6ApAW0Ob3dTZ-163" target="mkdnd21y6ApAW0Ob3dTZ-162" edge="1">
                    <mxGeometry width="50" height="50" relative="1" as="geometry">
                        <mxPoint x="-2630" y="-1430" as="sourcePoint"/>
                        <mxPoint x="-2440" y="-1360" as="targetPoint"/>
                    </mxGeometry>
                </mxCell>
                <mxCell id="mkdnd21y6ApAW0Ob3dTZ-179" value="" style="endArrow=none;html=1;rounded=0;exitX=0.5;exitY=0;exitDx=0;exitDy=0;entryX=0.5;entryY=1;entryDx=0;entryDy=0;fontFamily=Times New Roman;" parent="1" source="mkdnd21y6ApAW0Ob3dTZ-172" target="mkdnd21y6ApAW0Ob3dTZ-160" edge="1">
                    <mxGeometry width="50" height="50" relative="1" as="geometry">
                        <mxPoint x="-2430" y="-1310" as="sourcePoint"/>
                        <mxPoint x="-2430" y="-1350" as="targetPoint"/>
                    </mxGeometry>
                </mxCell>
                <mxCell id="mkdnd21y6ApAW0Ob3dTZ-180" value="" style="endArrow=none;html=1;rounded=0;exitX=0.5;exitY=1;exitDx=0;exitDy=0;entryX=0.5;entryY=0;entryDx=0;entryDy=0;fontFamily=Times New Roman;" parent="1" source="mkdnd21y6ApAW0Ob3dTZ-160" target="mkdnd21y6ApAW0Ob3dTZ-169" edge="1">
                    <mxGeometry width="50" height="50" relative="1" as="geometry">
                        <mxPoint x="-2650" y="-1310" as="sourcePoint"/>
                        <mxPoint x="-2830" y="-1350" as="targetPoint"/>
                    </mxGeometry>
                </mxCell>
                <mxCell id="mkdnd21y6ApAW0Ob3dTZ-182" value="" style="endArrow=none;html=1;rounded=0;exitX=0.5;exitY=0;exitDx=0;exitDy=0;entryX=0.5;entryY=1;entryDx=0;entryDy=0;fontFamily=Times New Roman;" parent="1" source="mkdnd21y6ApAW0Ob3dTZ-171" target="mkdnd21y6ApAW0Ob3dTZ-160" edge="1">
                    <mxGeometry width="50" height="50" relative="1" as="geometry">
                        <mxPoint x="-2830" y="-1350" as="sourcePoint"/>
                        <mxPoint x="-3010" y="-1310" as="targetPoint"/>
                    </mxGeometry>
                </mxCell>
                <mxCell id="mkdnd21y6ApAW0Ob3dTZ-184" value="" style="endArrow=none;html=1;rounded=0;exitX=0.5;exitY=0;exitDx=0;exitDy=0;entryX=0.5;entryY=1;entryDx=0;entryDy=0;fontFamily=Times New Roman;" parent="1" source="mkdnd21y6ApAW0Ob3dTZ-170" target="mkdnd21y6ApAW0Ob3dTZ-160" edge="1">
                    <mxGeometry width="50" height="50" relative="1" as="geometry">
                        <mxPoint x="-2770" y="-1310" as="sourcePoint"/>
                        <mxPoint x="-2980" y="-1390" as="targetPoint"/>
                    </mxGeometry>
                </mxCell>
                <mxCell id="mkdnd21y6ApAW0Ob3dTZ-185" value="" style="endArrow=none;html=1;rounded=0;exitX=0.5;exitY=1;exitDx=0;exitDy=0;entryX=0.5;entryY=0;entryDx=0;entryDy=0;fontFamily=Times New Roman;" parent="1" source="mkdnd21y6ApAW0Ob3dTZ-171" target="mkdnd21y6ApAW0Ob3dTZ-174" edge="1">
                    <mxGeometry width="50" height="50" relative="1" as="geometry">
                        <mxPoint x="-2760" y="-1299.25" as="sourcePoint"/>
                        <mxPoint x="-2820" y="-1339.25" as="targetPoint"/>
                    </mxGeometry>
                </mxCell>
                <mxCell id="mkdnd21y6ApAW0Ob3dTZ-186" value="" style="endArrow=none;html=1;rounded=0;exitX=0.5;exitY=0;exitDx=0;exitDy=0;entryX=0.5;entryY=1;entryDx=0;entryDy=0;fontFamily=Times New Roman;" parent="1" source="mkdnd21y6ApAW0Ob3dTZ-173" target="mkdnd21y6ApAW0Ob3dTZ-169" edge="1">
                    <mxGeometry width="50" height="50" relative="1" as="geometry">
                        <mxPoint x="-2750" y="-1289.25" as="sourcePoint"/>
                        <mxPoint x="-2810" y="-1329.25" as="targetPoint"/>
                    </mxGeometry>
                </mxCell>
                <mxCell id="mkdnd21y6ApAW0Ob3dTZ-187" value="" style="endArrow=none;html=1;rounded=0;exitX=0.5;exitY=1;exitDx=0;exitDy=0;entryX=0.5;entryY=0;entryDx=0;entryDy=0;fontFamily=Times New Roman;" parent="1" source="mkdnd21y6ApAW0Ob3dTZ-163" target="mkdnd21y6ApAW0Ob3dTZ-164" edge="1">
                    <mxGeometry width="50" height="50" relative="1" as="geometry">
                        <mxPoint x="-2740" y="-1280" as="sourcePoint"/>
                        <mxPoint x="-2800" y="-1320" as="targetPoint"/>
                    </mxGeometry>
                </mxCell>
                <mxCell id="mkdnd21y6ApAW0Ob3dTZ-189" value="" style="endArrow=none;html=1;rounded=0;exitX=0.5;exitY=0;exitDx=0;exitDy=0;entryX=0.5;entryY=1;entryDx=0;entryDy=0;fontFamily=Times New Roman;" parent="1" source="mkdnd21y6ApAW0Ob3dTZ-165" target="mkdnd21y6ApAW0Ob3dTZ-163" edge="1">
                    <mxGeometry width="50" height="50" relative="1" as="geometry">
                        <mxPoint x="-2730" y="-1270" as="sourcePoint"/>
                        <mxPoint x="-2790" y="-1310" as="targetPoint"/>
                    </mxGeometry>
                </mxCell>
                <mxCell id="mkdnd21y6ApAW0Ob3dTZ-190" value="" style="endArrow=none;html=1;rounded=0;exitX=0.5;exitY=0;exitDx=0;exitDy=0;entryX=0.5;entryY=1;entryDx=0;entryDy=0;fontFamily=Times New Roman;" parent="1" source="mkdnd21y6ApAW0Ob3dTZ-166" target="mkdnd21y6ApAW0Ob3dTZ-163" edge="1">
                    <mxGeometry width="50" height="50" relative="1" as="geometry">
                        <mxPoint x="-2720" y="-1260" as="sourcePoint"/>
                        <mxPoint x="-2780" y="-1300" as="targetPoint"/>
                    </mxGeometry>
                </mxCell>
                <mxCell id="mkdnd21y6ApAW0Ob3dTZ-191" value="" style="endArrow=none;html=1;rounded=0;exitX=0.5;exitY=0;exitDx=0;exitDy=0;entryX=0.5;entryY=1;entryDx=0;entryDy=0;fontFamily=Times New Roman;" parent="1" source="mkdnd21y6ApAW0Ob3dTZ-167" target="mkdnd21y6ApAW0Ob3dTZ-163" edge="1">
                    <mxGeometry width="50" height="50" relative="1" as="geometry">
                        <mxPoint x="-2710" y="-1250" as="sourcePoint"/>
                        <mxPoint x="-2770" y="-1290" as="targetPoint"/>
                    </mxGeometry>
                </mxCell>
                <mxCell id="mkdnd21y6ApAW0Ob3dTZ-192" value="" style="endArrow=none;html=1;rounded=0;exitX=0.5;exitY=0;exitDx=0;exitDy=0;entryX=0.5;entryY=1;entryDx=0;entryDy=0;fontFamily=Times New Roman;" parent="1" source="mkdnd21y6ApAW0Ob3dTZ-168" target="mkdnd21y6ApAW0Ob3dTZ-167" edge="1">
                    <mxGeometry width="50" height="50" relative="1" as="geometry">
                        <mxPoint x="-2700" y="-1240" as="sourcePoint"/>
                        <mxPoint x="-2760" y="-1280" as="targetPoint"/>
                    </mxGeometry>
                </mxCell>
                <mxCell id="mkdnd21y6ApAW0Ob3dTZ-204" value="&lt;div&gt;Diogo Ribeiro&lt;/div&gt;&lt;div&gt;(&lt;font&gt;&lt;i&gt;Escorregas&lt;/i&gt;&lt;/font&gt;)&lt;/div&gt;" style="rounded=0;whiteSpace=wrap;html=1;fillColor=#fa6800;fontColor=#000000;strokeColor=#C73500;dashed=1;dashPattern=8 8;fontFamily=Times New Roman;" parent="1" vertex="1">
                    <mxGeometry x="-3240" y="-1320.5" width="120" height="40" as="geometry"/>
                </mxCell>
                <mxCell id="2" value="&lt;div&gt;Renata Castanheira&lt;/div&gt;&lt;div&gt;(&lt;font&gt;&lt;i&gt;Huttle&lt;/i&gt;&lt;/font&gt;)&lt;/div&gt;" style="rounded=0;whiteSpace=wrap;html=1;fillColor=#008a00;fontColor=#ffffff;strokeColor=#005700;fontFamily=Times New Roman;" parent="1" vertex="1">
                    <mxGeometry x="-1500" y="-1080" width="120" height="40" as="geometry"/>
                </mxCell>
                <mxCell id="3" value="" style="endArrow=none;html=1;rounded=0;entryX=0.5;entryY=1;entryDx=0;entryDy=0;exitX=0.5;exitY=0;exitDx=0;exitDy=0;fontFamily=Times New Roman;" parent="1" source="2" target="mkdnd21y6ApAW0Ob3dTZ-130" edge="1">
                    <mxGeometry width="50" height="50" relative="1" as="geometry">
                        <mxPoint x="-1430" y="-1149.5" as="sourcePoint"/>
                        <mxPoint x="-1490" y="-1189.5" as="targetPoint"/>
                    </mxGeometry>
                </mxCell>
                <mxCell id="4" value="2023 / 2024" style="rounded=0;whiteSpace=wrap;html=1;fillColor=#008a00;fontColor=#ffffff;strokeColor=#005700;fontFamily=Times New Roman;" parent="1" vertex="1">
                    <mxGeometry x="-3480" y="-1600" width="160" height="20" as="geometry"/>
                </mxCell>
                <mxCell id="5" value="2022 / 2023" style="rounded=0;whiteSpace=wrap;html=1;fillColor=#e3c800;fontColor=#000000;strokeColor=#B09500;fontFamily=Times New Roman;" parent="1" vertex="1">
                    <mxGeometry x="-3480" y="-1580" width="160" height="20" as="geometry"/>
                </mxCell>
                <mxCell id="6" value="2021 / 2022" style="rounded=0;whiteSpace=wrap;html=1;fillColor=#f5f5f5;fontColor=#333333;strokeColor=#666666;fontFamily=Times New Roman;" parent="1" vertex="1">
                    <mxGeometry x="-3480" y="-1560" width="160" height="20" as="geometry"/>
                </mxCell>
                <mxCell id="7" value="2019 / 2020" style="rounded=0;whiteSpace=wrap;html=1;fillColor=#0050ef;fontColor=#ffffff;strokeColor=#001DBC;fontFamily=Times New Roman;" parent="1" vertex="1">
                    <mxGeometry x="-3480" y="-1540" width="160" height="20" as="geometry"/>
                </mxCell>
                <mxCell id="8" value="2018 / 2019" style="rounded=0;whiteSpace=wrap;html=1;fillColor=#fa6800;fontColor=#000000;strokeColor=#C73500;fontFamily=Times New Roman;" parent="1" vertex="1">
                    <mxGeometry x="-3480" y="-1520" width="160" height="20" as="geometry"/>
                </mxCell>
                <mxCell id="9" value="&amp;nbsp;Legenda Matrículas:" style="rounded=0;whiteSpace=wrap;html=1;fillColor=#f5f5f5;gradientColor=#b3b3b3;strokeColor=#666666;fontFamily=Times New Roman;" parent="1" vertex="1">
                    <mxGeometry x="-3480" y="-1640" width="160" height="20" as="geometry"/>
                </mxCell>
                <mxCell id="10" value="2017 / 2018" style="rounded=0;whiteSpace=wrap;html=1;fillColor=#000066;fontColor=#ffffff;strokeColor=#432D57;fontFamily=Times New Roman;" parent="1" vertex="1">
                    <mxGeometry x="-3480" y="-1500" width="160" height="20" as="geometry"/>
                </mxCell>
                <mxCell id="11" value="2016 / 2017" style="rounded=0;whiteSpace=wrap;html=1;fillColor=#f0a30a;fontColor=#000000;strokeColor=#BD7000;fontFamily=Times New Roman;" parent="1" vertex="1">
                    <mxGeometry x="-3480" y="-1480" width="160" height="21" as="geometry"/>
                </mxCell>
                <mxCell id="12" value="2015 / 2016" style="rounded=0;whiteSpace=wrap;html=1;fillColor=#CCCCCC;strokeColor=#666666;fontColor=#333333;fontFamily=Times New Roman;" parent="1" vertex="1">
                    <mxGeometry x="-3480" y="-1459" width="160" height="20" as="geometry"/>
                </mxCell>
                <mxCell id="13" value="2014 / 2015" style="rounded=0;whiteSpace=wrap;html=1;fillColor=#d80073;fontColor=#ffffff;strokeColor=#A50040;fontFamily=Times New Roman;" parent="1" vertex="1">
                    <mxGeometry x="-3480" y="-1439" width="160" height="20" as="geometry"/>
                </mxCell>
                <mxCell id="14" value="2013 / 2014" style="rounded=0;whiteSpace=wrap;html=1;fillColor=#a20025;fontColor=#ffffff;strokeColor=#6F0000;fontFamily=Times New Roman;" parent="1" vertex="1">
                    <mxGeometry x="-3480" y="-1419" width="160" height="20" as="geometry"/>
                </mxCell>
                <mxCell id="15" value="2012&lt;span style=&quot;background-color: initial;&quot;&gt;&amp;nbsp;/ 2013&lt;/span&gt;" style="rounded=0;whiteSpace=wrap;html=1;fillColor=#60a917;fontColor=#ffffff;strokeColor=#2D7600;fontFamily=Times New Roman;" parent="1" vertex="1">
                    <mxGeometry x="-3480" y="-1399" width="160" height="20" as="geometry"/>
                </mxCell>
                <mxCell id="16" value="2011&lt;span style=&quot;background-color: initial;&quot;&gt;&amp;nbsp;/ 2012&lt;/span&gt;" style="rounded=0;whiteSpace=wrap;html=1;fillColor=#1ba1e2;fontColor=#ffffff;strokeColor=#006EAF;fontFamily=Times New Roman;" parent="1" vertex="1">
                    <mxGeometry x="-3480" y="-1379" width="160" height="20" as="geometry"/>
                </mxCell>
                <mxCell id="17" value="2010&lt;span style=&quot;background-color: initial;&quot;&gt;&amp;nbsp;/ 2011&lt;/span&gt;" style="rounded=0;whiteSpace=wrap;html=1;fillColor=#FFFF00;fontColor=#000000;fontFamily=Times New Roman;" parent="1" vertex="1">
                    <mxGeometry x="-3480" y="-1359" width="160" height="20" as="geometry"/>
                </mxCell>
                <mxCell id="18" value="2010+" style="rounded=0;whiteSpace=wrap;html=1;fillColor=#a0522d;strokeColor=#6D1F00;fontColor=#ffffff;fontFamily=Times New Roman;" parent="1" vertex="1">
                    <mxGeometry x="-3480" y="-1339" width="160" height="20" as="geometry"/>
                </mxCell>
                <mxCell id="19" value="Não sabemos ano" style="rounded=0;whiteSpace=wrap;html=1;fillColor=#f5f5f5;gradientColor=#b3b3b3;strokeColor=#666666;fontFamily=Times New Roman;" parent="1" vertex="1">
                    <mxGeometry x="-3480" y="-1319" width="160" height="20" as="geometry"/>
                </mxCell>
                <mxCell id="20" value="2024&amp;nbsp;/ 2025" style="rounded=0;whiteSpace=wrap;html=1;fillColor=#FF0080;strokeColor=#996185;gradientColor=none;fontColor=#000000;fontFamily=Times New Roman;" parent="1" vertex="1">
                    <mxGeometry x="-3480" y="-1620" width="160" height="20" as="geometry"/>
                </mxCell>
                <mxCell id="23" value="&lt;div&gt;&lt;/div&gt;&lt;div&gt;António Costa&lt;br&gt;(&lt;font&gt;&lt;i&gt;Complô MVC&lt;/i&gt;&lt;/font&gt;)&lt;/div&gt;" style="rounded=0;whiteSpace=wrap;html=1;fillColor=#FF0080;fontColor=#000000;strokeColor=#A50040;fontFamily=Times New Roman;" parent="1" vertex="1">
                    <mxGeometry x="-349" y="-1080" width="120" height="40" as="geometry"/>
                </mxCell>
                <mxCell id="24" value="" style="endArrow=classic;html=1;rounded=0;entryX=0.5;entryY=1;entryDx=0;entryDy=0;exitX=0.5;exitY=0;exitDx=0;exitDy=0;dashed=1;dashPattern=8 8;fontFamily=Times New Roman;startArrow=none;startFill=0;endFill=1;" parent="1" source="23" target="mkdnd21y6ApAW0Ob3dTZ-60" edge="1">
                    <mxGeometry width="50" height="50" relative="1" as="geometry">
                        <mxPoint x="-659" y="-1229.5" as="sourcePoint"/>
                        <mxPoint x="-99" y="-1270.5" as="targetPoint"/>
                    </mxGeometry>
                </mxCell>
                <mxCell id="25" value="&lt;div&gt;&lt;/div&gt;&lt;div&gt;Daniel Pereira&lt;/div&gt;&lt;div&gt;(&lt;font&gt;&lt;i&gt;Lama Su&lt;/i&gt;&lt;/font&gt;)&lt;/div&gt;" style="rounded=0;whiteSpace=wrap;html=1;fillColor=#FF0080;fontColor=#000000;strokeColor=#A50040;fontFamily=Times New Roman;" parent="1" vertex="1">
                    <mxGeometry x="1310" y="-1080" width="120" height="40" as="geometry"/>
                </mxCell>
                <mxCell id="26" value="" style="endArrow=none;html=1;rounded=0;exitX=0.5;exitY=1;exitDx=0;exitDy=0;entryX=0.5;entryY=0;entryDx=0;entryDy=0;fontFamily=Times New Roman;startArrow=none;startFill=0;dashed=1;dashPattern=8 8;" parent="1" source="mkdnd21y6ApAW0Ob3dTZ-11" target="25" edge="1">
                    <mxGeometry width="50" height="50" relative="1" as="geometry">
                        <mxPoint x="1440" y="-1191.5" as="sourcePoint"/>
                        <mxPoint x="1370" y="-1080.0000000000002" as="targetPoint"/>
                    </mxGeometry>
                </mxCell>
                <mxCell id="27" value="&lt;div&gt;&lt;/div&gt;&lt;div&gt;&lt;/div&gt;&lt;div&gt;Cássia Gaspar&lt;/div&gt;&lt;div&gt;()&lt;/div&gt;" style="rounded=0;whiteSpace=wrap;html=1;fillColor=#FF0080;fontColor=#000000;strokeColor=#A50040;fontFamily=Times New Roman;" parent="1" vertex="1">
                    <mxGeometry x="1010" y="-1161.5" width="120" height="40" as="geometry"/>
                </mxCell>
                <mxCell id="28" value="&lt;div&gt;&lt;/div&gt;&lt;div&gt;&lt;/div&gt;&lt;div&gt;Violeta Rocha&lt;/div&gt;&lt;div&gt;(&lt;font&gt;&lt;i&gt;????&lt;/i&gt;&lt;/font&gt;)&lt;/div&gt;" style="rounded=0;whiteSpace=wrap;html=1;fillColor=#FF0080;fontColor=#000000;strokeColor=#A50040;fontFamily=Times New Roman;" parent="1" vertex="1">
                    <mxGeometry x="1830" y="-1160" width="120" height="40" as="geometry"/>
                </mxCell>
                <mxCell id="29" value="" style="endArrow=none;html=1;rounded=0;exitX=0.5;exitY=1;exitDx=0;exitDy=0;entryX=0.5;entryY=0;entryDx=0;entryDy=0;dashed=1;dashPattern=8 8;fontFamily=Times New Roman;startArrow=classic;startFill=1;" parent="1" source="mkdnd21y6ApAW0Ob3dTZ-7" target="27" edge="1">
                    <mxGeometry width="50" height="50" relative="1" as="geometry">
                        <mxPoint x="1320" y="-1270.5" as="sourcePoint"/>
                        <mxPoint x="1120" y="-1231.5" as="targetPoint"/>
                    </mxGeometry>
                </mxCell>
                <mxCell id="31" value="" style="endArrow=none;html=1;rounded=0;exitX=0.5;exitY=1;exitDx=0;exitDy=0;entryX=0.5;entryY=0;entryDx=0;entryDy=0;dashed=1;dashPattern=8 8;fontFamily=Times New Roman;startArrow=classic;startFill=1;" parent="1" source="mkdnd21y6ApAW0Ob3dTZ-5" target="28" edge="1">
                    <mxGeometry width="50" height="50" relative="1" as="geometry">
                        <mxPoint x="1120" y="-1191.5" as="sourcePoint"/>
                        <mxPoint x="1000" y="-1151.5" as="targetPoint"/>
                    </mxGeometry>
                </mxCell>
                <mxCell id="32" value="&lt;div&gt;&lt;/div&gt;&lt;div&gt;&lt;/div&gt;&lt;div&gt;&lt;/div&gt;&lt;div&gt;Beatriz Carvalho&lt;/div&gt;&lt;div&gt;(&lt;i&gt;C.P.U.&lt;/i&gt;)&lt;/div&gt;" style="rounded=0;whiteSpace=wrap;html=1;fillColor=#FF0080;fontColor=#000000;strokeColor=#A50040;fontFamily=Times New Roman;" parent="1" vertex="1">
                    <mxGeometry x="871" y="-1159.5" width="120" height="40" as="geometry"/>
                </mxCell>
                <mxCell id="33" value="" style="endArrow=classic;html=1;rounded=0;entryX=0.5;entryY=1;entryDx=0;entryDy=0;exitX=0.5;exitY=0;exitDx=0;exitDy=0;dashed=1;dashPattern=8 8;fontFamily=Times New Roman;startArrow=none;startFill=0;endFill=1;" parent="1" source="32" target="mkdnd21y6ApAW0Ob3dTZ-38" edge="1">
                    <mxGeometry width="50" height="50" relative="1" as="geometry">
                        <mxPoint x="821" y="-1149.5" as="sourcePoint"/>
                        <mxPoint x="521" y="-1189" as="targetPoint"/>
                    </mxGeometry>
                </mxCell>
                <mxCell id="34" value="&lt;div&gt;&lt;/div&gt;&lt;div&gt;Inês Rodrigues&lt;br&gt;(&lt;i&gt;???&lt;/i&gt;)&lt;/div&gt;" style="rounded=0;whiteSpace=wrap;html=1;fillColor=#FF0080;fontColor=#000000;strokeColor=#A50040;fontFamily=Times New Roman;" parent="1" vertex="1">
                    <mxGeometry x="-1089" y="-1159.5" width="120" height="40" as="geometry"/>
                </mxCell>
                <mxCell id="41" value="" style="endArrow=classic;html=1;rounded=0;entryX=0.5;entryY=1;entryDx=0;entryDy=0;exitX=0.5;exitY=0;exitDx=0;exitDy=0;fontFamily=Times New Roman;dashed=1;dashPattern=8 8;startArrow=none;startFill=0;endFill=1;" parent="1" source="34" target="mkdnd21y6ApAW0Ob3dTZ-40" edge="1">
                    <mxGeometry width="50" height="50" relative="1" as="geometry">
                        <mxPoint x="-889" y="-1139.5" as="sourcePoint"/>
                        <mxPoint x="-830" y="-1181.5" as="targetPoint"/>
                    </mxGeometry>
                </mxCell>
                <mxCell id="42" value="&lt;div&gt;&lt;/div&gt;&lt;div&gt;Simão Santos&lt;/div&gt;&lt;div&gt;(&lt;i&gt;Angry Bird&lt;/i&gt;)&lt;/div&gt;" style="rounded=0;whiteSpace=wrap;html=1;fillColor=#FF0080;fontColor=#000000;strokeColor=#A50040;fontFamily=Times New Roman;" parent="1" vertex="1">
                    <mxGeometry x="1430" y="-1080.5" width="120" height="40" as="geometry"/>
                </mxCell>
                <mxCell id="43" value="" style="endArrow=none;html=1;rounded=0;exitX=0.5;exitY=1;exitDx=0;exitDy=0;entryX=0.5;entryY=0;entryDx=0;entryDy=0;dashed=1;dashPattern=8 8;fontFamily=Times New Roman;startArrow=classic;startFill=1;" parent="1" source="mkdnd21y6ApAW0Ob3dTZ-12" target="42" edge="1">
                    <mxGeometry width="50" height="50" relative="1" as="geometry">
                        <mxPoint x="1499" y="-1110" as="sourcePoint"/>
                        <mxPoint x="1490" y="-1080.0000000000002" as="targetPoint"/>
                    </mxGeometry>
                </mxCell>
                <mxCell id="45" value="&lt;div&gt;&lt;/div&gt;&lt;div&gt;Eduany Dias&lt;/div&gt;&lt;div&gt;(&lt;i style=&quot;background-color: transparent; color: rgb(63, 63, 63);&quot;&gt;????&lt;/i&gt;&lt;span style=&quot;background-color: transparent;&quot;&gt;)&lt;/span&gt;&lt;/div&gt;" style="rounded=0;whiteSpace=wrap;html=1;fillColor=#FF0080;fontColor=#000000;strokeColor=#A50040;fontFamily=Times New Roman;" parent="1" vertex="1">
                    <mxGeometry x="-1209" y="-1159.5" width="120" height="40" as="geometry"/>
                </mxCell>
                <mxCell id="46" value="" style="endArrow=none;html=1;rounded=0;entryX=0.5;entryY=0;entryDx=0;entryDy=0;dashed=1;dashPattern=8 8;fontFamily=Times New Roman;startArrow=classic;startFill=1;exitX=0.5;exitY=1;exitDx=0;exitDy=0;" parent="1" source="mkdnd21y6ApAW0Ob3dTZ-40" target="45" edge="1">
                    <mxGeometry width="50" height="50" relative="1" as="geometry">
                        <mxPoint x="-980" y="-1230" as="sourcePoint"/>
                        <mxPoint x="-941" y="-1348" as="targetPoint"/>
                    </mxGeometry>
                </mxCell>
                <mxCell id="47" value="&lt;div&gt;&lt;/div&gt;&lt;div&gt;Bernardo Silva&lt;/div&gt;&lt;div&gt;(&lt;i&gt;????&lt;/i&gt;)&lt;/div&gt;" style="rounded=0;whiteSpace=wrap;html=1;fillColor=#FF0080;fontColor=#000000;strokeColor=#A50040;fontFamily=Times New Roman;" parent="1" vertex="1">
                    <mxGeometry x="1710" y="-1160" width="120" height="40" as="geometry"/>
                </mxCell>
                <mxCell id="48" value="" style="endArrow=none;html=1;rounded=0;exitX=0.5;exitY=1;exitDx=0;exitDy=0;entryX=0.5;entryY=0;entryDx=0;entryDy=0;dashed=1;dashPattern=8 8;fontFamily=Times New Roman;startArrow=classic;startFill=1;" parent="1" source="mkdnd21y6ApAW0Ob3dTZ-5" target="47" edge="1">
                    <mxGeometry width="50" height="50" relative="1" as="geometry">
                        <mxPoint x="1640" y="-1121" as="sourcePoint"/>
                        <mxPoint x="1659" y="-1140.5" as="targetPoint"/>
                    </mxGeometry>
                </mxCell>
                <mxCell id="49" value="&lt;div&gt;David Marinho&lt;/div&gt;&lt;div&gt;(&lt;i&gt;&lt;font&gt;????&lt;/font&gt;&lt;/i&gt;)&lt;/div&gt;" style="rounded=0;whiteSpace=wrap;html=1;fontFamily=Times New Roman;fillColor=#f5f5f5;gradientColor=#b3b3b3;strokeColor=#666666;" parent="1" vertex="1">
                    <mxGeometry x="-2220" y="-1640" width="120" height="40" as="geometry"/>
                </mxCell>
                <mxCell id="50" value="" style="endArrow=none;html=1;rounded=0;entryX=0.5;entryY=1;entryDx=0;entryDy=0;exitX=0.5;exitY=0;exitDx=0;exitDy=0;fontFamily=Times New Roman;" parent="1" source="mkdnd21y6ApAW0Ob3dTZ-148" target="49" edge="1">
                    <mxGeometry width="50" height="50" relative="1" as="geometry">
                        <mxPoint x="-2150" y="-1390" as="sourcePoint"/>
                        <mxPoint x="-2150" y="-1430" as="targetPoint"/>
                    </mxGeometry>
                </mxCell>
                <mxCell id="55" value="&lt;div&gt;&lt;/div&gt;&lt;div&gt;Lucas Silva&lt;/div&gt;&lt;div&gt;(&lt;i&gt;???&lt;/i&gt;)&lt;/div&gt;" style="rounded=0;whiteSpace=wrap;html=1;fillColor=#FF0080;fontColor=#000000;strokeColor=#A50040;fontFamily=Times New Roman;" parent="1" vertex="1">
                    <mxGeometry x="11" y="-1080.5" width="120" height="40" as="geometry"/>
                </mxCell>
                <mxCell id="56" value="" style="endArrow=classic;html=1;rounded=0;entryX=0.5;entryY=1;entryDx=0;entryDy=0;exitX=0.5;exitY=0;exitDx=0;exitDy=0;fontFamily=Times New Roman;dashed=1;dashPattern=8 8;startArrow=none;startFill=0;endFill=1;" parent="1" source="55" target="mkdnd21y6ApAW0Ob3dTZ-59" edge="1">
                    <mxGeometry width="50" height="50" relative="1" as="geometry">
                        <mxPoint x="211" y="-1060" as="sourcePoint"/>
                        <mxPoint x="311" y="-1121.5" as="targetPoint"/>
                    </mxGeometry>
                </mxCell>
                <mxCell id="57" value="&lt;div&gt;&lt;/div&gt;&lt;div&gt;&lt;/div&gt;&lt;div&gt;&lt;/div&gt;&lt;div&gt;Alex&lt;/div&gt;&lt;div&gt;(&lt;i&gt;????&lt;/i&gt;)&lt;/div&gt;" style="rounded=0;whiteSpace=wrap;html=1;fillColor=#FF0080;fontColor=#000000;strokeColor=#A50040;fontFamily=Times New Roman;" parent="1" vertex="1">
                    <mxGeometry x="-1329" y="-1159.5" width="120" height="40" as="geometry"/>
                </mxCell>
                <mxCell id="58" value="" style="endArrow=classic;html=1;rounded=0;entryX=0.5;entryY=1;entryDx=0;entryDy=0;exitX=0.5;exitY=0;exitDx=0;exitDy=0;dashed=1;dashPattern=8 8;fontFamily=Times New Roman;startArrow=none;startFill=0;endFill=1;" parent="1" source="57" target="mkdnd21y6ApAW0Ob3dTZ-40" edge="1">
                    <mxGeometry width="50" height="50" relative="1" as="geometry">
                        <mxPoint x="-830" y="-1058.5" as="sourcePoint"/>
                        <mxPoint x="-1080" y="-1110" as="targetPoint"/>
                    </mxGeometry>
                </mxCell>
                <mxCell id="59" style="edgeStyle=none;html=1;exitX=0.5;exitY=0;exitDx=0;exitDy=0;entryX=0.5;entryY=1;entryDx=0;entryDy=0;dashed=1;dashPattern=8 8;" parent="1" source="60" target="mkdnd21y6ApAW0Ob3dTZ-174" edge="1">
                    <mxGeometry relative="1" as="geometry">
                        <mxPoint x="-2780" y="-1201" as="targetPoint"/>
                    </mxGeometry>
                </mxCell>
                <mxCell id="60" value="&lt;div&gt;&lt;/div&gt;&lt;div&gt;... Nobre&lt;/div&gt;&lt;div&gt;(&lt;i&gt;????&lt;/i&gt;)&lt;/div&gt;" style="rounded=0;whiteSpace=wrap;html=1;fillColor=#FF0080;fontColor=#000000;strokeColor=#A50040;fontFamily=Times New Roman;" parent="1" vertex="1">
                    <mxGeometry x="-2960" y="-1160" width="120" height="40" as="geometry"/>
                </mxCell>
                <mxCell id="62" value="&lt;div&gt;&lt;/div&gt;&lt;div&gt;André Rego&lt;br&gt;(&lt;i&gt;Avec&lt;/i&gt;)&lt;/div&gt;" style="rounded=0;whiteSpace=wrap;html=1;fillColor=#FF0080;fontColor=#000000;strokeColor=#A50040;fontFamily=Times New Roman;" vertex="1" parent="1">
                    <mxGeometry x="-229" y="-1080" width="120" height="40" as="geometry"/>
                </mxCell>
                <mxCell id="63" value="" style="endArrow=classic;html=1;rounded=0;exitX=0.5;exitY=0;exitDx=0;exitDy=0;dashed=1;dashPattern=8 8;fontFamily=Times New Roman;startArrow=none;startFill=0;endFill=1;entryX=0.5;entryY=1;entryDx=0;entryDy=0;" edge="1" parent="1" source="62" target="mkdnd21y6ApAW0Ob3dTZ-58">
                    <mxGeometry width="50" height="50" relative="1" as="geometry">
                        <mxPoint x="-539" y="-1230.5" as="sourcePoint"/>
                        <mxPoint x="-140" y="-1110" as="targetPoint"/>
                    </mxGeometry>
                </mxCell>
            </root>
        </mxGraphModel>
    </diagram>
</mxfile>